<?xml version="1.0" standalone="no"?>
<!DOCTYPE svg PUBLIC "-//W3C//DTD SVG 20010904//EN"
 "http://www.w3.org/TR/2001/REC-SVG-20010904/DTD/svg10.dtd">
<svg version="1.0" xmlns="http://www.w3.org/2000/svg"
 width="5812.000000pt" height="4747.000000pt" viewBox="0 0 5812.000000 4747.000000"
 preserveAspectRatio="xMidYMid meet">
<metadata>
Created by potrace 1.15, written by Peter Selinger 2001-2017
</metadata>
<g transform="translate(0.000000,4747.000000) scale(0.100000,-0.100000)"
fill="#000000" stroke="none">
<path d="M29625 47463 c-11 -3 -61 -23 -111 -44 -99 -42 -348 -106 -449 -116
-49 -4 -85 0 -171 22 l-108 28 -78 -17 c-130 -28 -290 -83 -353 -122 -194
-120 -203 -121 -339 -29 -54 35 -115 70 -136 76 -56 17 -107 -6 -205 -92 -102
-89 -175 -138 -233 -155 -29 -9 -94 -14 -181 -14 -142 1 -164 4 -296 38 -44
12 -141 28 -215 36 -133 15 -137 16 -255 75 -147 73 -150 74 -190 61 -41 -14
-75 -62 -119 -170 -19 -47 -43 -94 -53 -106 -25 -28 -95 -42 -259 -54 -71 -5
-168 -18 -215 -29 -47 -12 -155 -29 -240 -39 l-154 -18 -115 -85 c-64 -46
-165 -116 -225 -156 l-110 -72 -140 9 -140 8 -60 -38 c-33 -21 -98 -59 -145
-85 -47 -26 -105 -64 -130 -84 -25 -20 -53 -42 -62 -49 -9 -8 -66 -20 -126
-27 -72 -9 -131 -23 -173 -41 -57 -24 -80 -28 -206 -32 l-142 -4 -73 -66 c-40
-36 -170 -143 -288 -237 -118 -94 -269 -218 -335 -276 -174 -153 -219 -187
-341 -263 -65 -40 -154 -108 -215 -163 -260 -238 -367 -307 -624 -406 -99 -39
-138 -60 -220 -123 -133 -101 -377 -261 -445 -292 -171 -78 -243 -116 -273
-145 -31 -29 -36 -40 -41 -102 -18 -190 -24 -227 -42 -246 -10 -12 -82 -51
-159 -89 -84 -40 -172 -92 -220 -129 -44 -34 -126 -84 -182 -111 l-102 -50
-20 -56 c-12 -30 -21 -62 -21 -71 0 -9 -46 -64 -103 -122 -112 -114 -199 -222
-317 -392 -105 -151 -200 -260 -382 -439 -180 -178 -199 -208 -221 -360 -11
-76 -26 -123 -71 -225 -32 -71 -77 -185 -100 -254 -24 -69 -67 -182 -96 -251
-29 -69 -79 -204 -111 -300 -46 -142 -60 -200 -74 -309 -32 -268 -68 -383
-174 -555 l-36 -60 0 -175 0 -176 -54 -120 c-185 -416 -196 -450 -231 -720
-32 -252 -176 -800 -280 -1069 -21 -56 -43 -119 -49 -141 -20 -79 -32 -248
-41 -576 -10 -367 -14 -399 -85 -619 l-38 -115 13 -267 c16 -318 11 -401 -29
-575 -35 -150 -46 -215 -61 -358 -16 -145 -44 -262 -87 -368 l-38 -92 0 -185
c0 -180 1 -189 37 -330 25 -95 45 -209 58 -330 19 -166 26 -200 71 -333 56
-165 56 -183 2 -239 -31 -32 -63 -42 -212 -68 -127 -21 -204 -56 -302 -136
-118 -97 -217 -236 -282 -399 -101 -252 -190 -678 -203 -965 -6 -143 -4 -166
56 -505 16 -93 43 -291 60 -440 49 -437 50 -439 205 -944 115 -373 201 -682
233 -831 27 -126 37 -203 67 -533 38 -422 46 -461 146 -754 100 -290 182 -473
354 -788 95 -174 149 -289 215 -460 105 -272 169 -391 288 -540 137 -172 375
-374 531 -452 68 -33 84 -37 175 -41 56 -2 164 1 241 6 215 17 218 12 209
-285 -6 -172 -4 -222 16 -381 22 -172 22 -192 10 -314 -13 -129 -13 -130 24
-396 20 -147 41 -323 47 -392 9 -109 18 -146 64 -285 62 -184 78 -269 100
-525 15 -173 19 -193 61 -315 l45 -130 9 -195 c16 -358 12 -1170 -10 -1676
-11 -258 -40 -1000 -65 -1649 -25 -649 -50 -1265 -55 -1370 -9 -180 -22 -588
-35 -1170 -8 -322 -19 -511 -40 -691 -18 -152 -30 -195 -50 -188 -7 3 -35 -6
-61 -19 -45 -23 -72 -45 -116 -97 -10 -11 -29 -20 -42 -20 -18 0 -25 -6 -28
-22 -6 -45 -74 -65 -283 -83 -104 -9 -210 -13 -235 -10 -34 5 -57 1 -91 -13
-25 -11 -81 -29 -124 -41 -156 -41 -175 -47 -187 -59 -7 -7 -24 -12 -40 -12
-15 0 -35 -8 -45 -19 -10 -10 -42 -24 -71 -31 -28 -6 -55 -16 -58 -21 -3 -5
-19 -9 -36 -9 -17 0 -36 -7 -42 -15 -6 -8 -35 -19 -65 -25 -30 -6 -66 -18 -80
-27 -14 -10 -32 -16 -39 -15 -21 5 -235 -69 -257 -88 -11 -9 -40 -24 -65 -33
-25 -9 -74 -37 -110 -61 -36 -25 -83 -55 -105 -67 -85 -46 -222 -169 -277
-247 -16 -24 -55 -59 -85 -78 -30 -20 -57 -42 -59 -49 -3 -8 -12 -11 -19 -9
-13 5 -20 0 -55 -48 -11 -15 -52 -48 -90 -73 -39 -26 -70 -51 -70 -56 0 -5
-11 -14 -24 -19 -14 -5 -32 -21 -42 -35 -9 -14 -22 -25 -29 -25 -28 0 -330
-233 -399 -307 -16 -18 -35 -33 -42 -33 -16 0 -144 -97 -162 -122 -7 -10 -20
-18 -28 -18 -8 0 -17 -7 -21 -15 -3 -9 -23 -25 -44 -36 -21 -10 -46 -30 -55
-44 -9 -14 -22 -25 -28 -25 -7 0 -41 -29 -77 -65 -35 -36 -72 -68 -82 -71 -9
-3 -24 -18 -32 -34 -8 -15 -25 -30 -37 -34 -13 -3 -32 -22 -43 -43 -11 -20
-36 -45 -55 -56 -43 -23 -88 -71 -109 -117 -9 -20 -58 -74 -109 -120 -93 -85
-125 -112 -280 -238 -46 -37 -103 -84 -126 -104 -24 -21 -49 -38 -56 -38 -13
0 -50 -27 -105 -76 -19 -17 -53 -36 -75 -43 -23 -7 -51 -23 -63 -37 -11 -13
-51 -41 -87 -61 -36 -20 -117 -67 -181 -105 -64 -37 -121 -68 -126 -68 -6 0
-18 -9 -28 -20 -10 -11 -23 -20 -29 -20 -6 0 -21 -11 -34 -24 -12 -14 -36 -27
-52 -31 -36 -8 -80 -41 -80 -61 0 -16 -16 -19 -25 -4 -4 7 -20 3 -43 -11 -39
-24 -190 -108 -255 -141 -20 -11 -51 -33 -67 -48 -16 -15 -38 -27 -47 -26 -13
1 -19 -7 -21 -26 -3 -24 -11 -30 -60 -45 -31 -10 -58 -21 -60 -25 -2 -5 -14
-8 -26 -8 -12 0 -35 -14 -51 -30 -20 -21 -35 -28 -48 -24 -11 3 -33 -4 -57
-20 -59 -39 -392 -176 -436 -179 -11 -1 -27 -7 -35 -13 -19 -16 -170 -74 -191
-74 -10 0 -18 -7 -18 -15 0 -9 -12 -18 -30 -21 -16 -4 -34 -12 -40 -19 -6 -7
-19 -11 -29 -8 -22 6 -141 -55 -141 -72 0 -7 -21 -15 -50 -18 -61 -7 -158 -63
-216 -124 -24 -26 -50 -43 -63 -43 -12 0 -43 -17 -69 -38 -26 -21 -70 -55 -98
-75 -51 -37 -51 -37 -61 -14 -10 21 -10 21 -27 -11 -18 -35 -75 -77 -119 -87
-33 -9 -42 -21 -28 -39 8 -10 4 -12 -17 -8 -21 3 -37 -5 -68 -35 -68 -64 -186
-153 -211 -159 -13 -4 -23 -12 -23 -19 0 -8 -9 -17 -20 -20 -11 -3 -20 -11
-20 -16 0 -6 -17 -17 -37 -25 -21 -9 -101 -46 -179 -84 -77 -38 -158 -73 -180
-78 -31 -7 -39 -13 -38 -30 0 -13 -5 -22 -14 -22 -26 0 -166 -61 -201 -87 -18
-14 -56 -34 -85 -45 -28 -11 -56 -25 -61 -31 -6 -7 -31 -22 -56 -35 -38 -19
-82 -50 -156 -112 -7 -6 -16 -10 -21 -10 -5 0 -17 -9 -27 -20 -10 -11 -31 -20
-47 -20 -21 0 -28 -5 -28 -19 0 -13 -15 -26 -44 -41 -25 -12 -63 -39 -85 -61
-23 -21 -45 -39 -50 -39 -5 0 -12 -8 -15 -17 -3 -10 -28 -33 -55 -51 -27 -19
-61 -47 -77 -63 -15 -16 -33 -29 -38 -29 -6 0 -74 -49 -151 -109 -77 -60 -174
-127 -216 -148 -52 -26 -79 -47 -88 -65 -8 -17 -21 -28 -33 -28 -11 0 -43 -24
-73 -52 -63 -64 -150 -138 -161 -138 -7 0 -24 -14 -74 -62 -15 -16 -35 -28
-43 -28 -9 0 -25 -12 -36 -26 -12 -15 -47 -36 -83 -49 -50 -18 -63 -27 -62
-44 0 -13 -9 -24 -26 -31 -15 -6 -42 -27 -61 -46 -18 -19 -39 -34 -46 -34 -7
0 -21 -8 -31 -18 -22 -22 -113 -81 -179 -117 -29 -15 -99 -65 -155 -109 -57
-45 -115 -89 -130 -98 -14 -10 -29 -27 -33 -38 -3 -11 -13 -20 -20 -20 -16 0
-38 -34 -28 -44 3 -3 -1 -6 -10 -6 -8 0 -33 -16 -54 -36 -21 -20 -50 -42 -65
-50 -15 -8 -32 -22 -37 -32 -6 -10 -42 -39 -82 -63 -39 -24 -92 -58 -118 -76
-25 -18 -74 -46 -108 -63 -35 -17 -75 -44 -91 -59 -15 -16 -41 -35 -58 -44
-17 -9 -56 -36 -87 -61 -30 -25 -62 -46 -69 -46 -7 0 -19 -9 -26 -20 -6 -11
-43 -35 -81 -55 -39 -19 -98 -53 -132 -75 -34 -22 -65 -40 -69 -40 -10 0 -130
-80 -171 -113 -46 -38 -181 -127 -193 -127 -5 0 -24 -16 -42 -35 -17 -19 -41
-35 -51 -35 -11 0 -58 -34 -104 -75 -46 -41 -91 -75 -99 -75 -8 0 -35 -16 -60
-35 -25 -19 -68 -51 -97 -70 -28 -19 -55 -40 -58 -46 -4 -6 -33 -27 -64 -47
-31 -20 -72 -50 -91 -69 -67 -63 -194 -163 -225 -177 -17 -8 -37 -27 -45 -41
-7 -14 -16 -25 -20 -25 -4 0 -33 -20 -66 -45 -32 -24 -64 -45 -70 -45 -6 0
-19 -9 -28 -19 -10 -11 -52 -39 -94 -64 -42 -24 -107 -69 -144 -98 -114 -91
-198 -150 -244 -170 -24 -11 -44 -24 -44 -29 0 -5 -7 -16 -16 -24 -11 -12 -20
-13 -34 -6 -25 13 -30 13 -30 -5 0 -9 -19 -36 -42 -61 -39 -43 -72 -65 -141
-96 -19 -9 -27 -18 -23 -31 3 -12 -5 -22 -27 -33 -54 -25 -214 -123 -236 -144
-9 -8 -28 -14 -43 -12 -22 3 -32 -3 -47 -28 -10 -17 -37 -40 -59 -51 -22 -11
-62 -42 -89 -68 -26 -26 -61 -55 -76 -64 -15 -10 -32 -29 -37 -43 -5 -13 -22
-32 -38 -41 -33 -21 -152 -146 -152 -160 0 -5 -19 -28 -42 -50 -24 -22 -56
-55 -72 -74 -32 -36 -86 -135 -86 -157 0 -7 -11 -17 -25 -22 -14 -5 -25 -17
-25 -25 0 -9 -7 -18 -15 -21 -8 -3 -40 -38 -72 -77 -32 -39 -85 -93 -118 -120
-33 -28 -69 -68 -80 -90 -11 -23 -28 -45 -39 -51 -10 -6 -29 -21 -42 -33 -13
-13 -30 -23 -38 -23 -9 0 -22 -15 -30 -34 -11 -25 -27 -40 -69 -60 -31 -14
-65 -39 -76 -54 -11 -16 -37 -40 -58 -55 -21 -15 -47 -41 -58 -59 -10 -18 -38
-50 -61 -71 -24 -21 -46 -47 -49 -57 -4 -11 -12 -20 -18 -20 -7 0 -20 -14 -29
-30 -9 -17 -33 -40 -53 -51 -20 -12 -35 -29 -35 -40 0 -10 -4 -19 -10 -19 -5
0 -10 -5 -10 -11 0 -6 -22 -30 -48 -54 -43 -39 -152 -185 -152 -204 0 -4 -12
-14 -26 -21 -14 -8 -35 -32 -45 -53 -11 -21 -51 -72 -90 -113 -38 -41 -69 -79
-69 -85 0 -5 -21 -37 -46 -71 -25 -35 -57 -84 -70 -109 -13 -26 -30 -49 -39
-52 -8 -4 -15 -13 -15 -21 0 -9 -11 -23 -25 -32 -14 -9 -42 -44 -61 -78 -20
-33 -50 -76 -66 -95 -17 -19 -37 -49 -44 -68 -8 -18 -21 -33 -29 -33 -8 0 -15
-6 -15 -12 0 -15 -121 -225 -144 -250 -9 -10 -16 -22 -16 -28 0 -5 -8 -14 -19
-19 -10 -6 -21 -26 -24 -46 -3 -20 -26 -61 -51 -95 -25 -33 -48 -71 -52 -84
-3 -13 -17 -34 -30 -47 -13 -12 -24 -32 -24 -43 0 -29 -36 -96 -66 -123 -13
-12 -24 -26 -24 -32 0 -13 -176 -353 -221 -428 -21 -33 -48 -85 -60 -115 -12
-29 -35 -70 -51 -90 -33 -44 -57 -96 -86 -194 -12 -39 -28 -77 -36 -83 -7 -6
-21 -31 -30 -55 -9 -25 -37 -79 -61 -121 -24 -43 -61 -114 -81 -159 -21 -44
-82 -168 -136 -274 -54 -107 -98 -202 -98 -212 0 -11 -6 -23 -13 -27 -21 -13
-83 -106 -91 -136 -3 -15 -22 -45 -41 -66 l-35 -39 412 -6 c544 -9 57576 0
57651 9 64 8 70 19 37 65 -11 15 -29 50 -40 76 -12 27 -26 52 -32 55 -6 4 -19
30 -29 59 -34 96 -160 319 -217 382 -56 64 -82 111 -82 151 0 12 -8 38 -18 57
-24 46 -173 313 -206 370 -14 25 -26 52 -26 61 0 9 -10 23 -23 32 -27 18 -151
222 -259 430 -11 20 -24 37 -29 37 -5 0 -9 6 -9 14 0 8 -31 61 -69 118 -38 56
-114 180 -169 273 -55 94 -134 217 -175 275 -41 58 -109 166 -151 240 -42 74
-88 144 -101 155 -13 11 -44 67 -70 125 -75 170 -77 175 -92 183 -7 4 -23 27
-34 50 -12 23 -34 58 -50 78 -16 20 -37 56 -47 80 -11 24 -38 76 -62 114 -24
39 -76 135 -117 214 -41 80 -95 170 -119 200 -24 31 -72 91 -105 133 -59 76
-302 314 -389 382 -25 19 -100 59 -167 89 -174 77 -277 141 -368 227 -129 121
-224 200 -299 248 -113 73 -246 170 -316 232 -36 31 -92 76 -125 100 -33 25
-98 78 -145 120 -47 42 -119 103 -160 135 -41 33 -147 120 -234 193 -88 73
-198 159 -245 190 -47 31 -141 108 -209 172 -68 63 -183 169 -256 234 -72 65
-297 283 -500 483 -203 200 -386 373 -407 384 -21 10 -53 39 -71 63 -18 24
-46 52 -61 62 -16 11 -35 31 -42 45 -8 15 -38 40 -67 57 -29 17 -98 65 -154
109 -130 101 -190 144 -229 165 -17 9 -37 23 -44 32 -8 9 -21 16 -30 16 -30 0
-125 51 -206 109 -102 74 -149 98 -240 121 -97 25 -116 36 -210 122 -46 42
-112 89 -155 112 -41 22 -93 51 -115 66 -22 15 -67 41 -101 58 -33 17 -66 37
-73 46 -8 9 -19 16 -26 16 -7 0 -48 24 -91 54 -85 57 -272 156 -296 156 -9 0
-27 9 -41 20 -14 11 -29 20 -34 20 -4 0 -30 12 -58 25 -27 14 -57 25 -65 25
-8 0 -42 16 -75 36 -78 47 -478 234 -501 234 -5 0 -85 36 -179 81 -208 99
-224 106 -252 114 -13 3 -23 13 -23 22 0 11 -6 14 -25 9 -19 -5 -30 0 -47 20
-25 29 -97 64 -132 64 -12 0 -27 5 -32 10 -6 6 -41 21 -80 34 -130 46 -173 62
-186 73 -7 6 -36 20 -63 31 -53 21 -191 111 -265 172 -79 66 -262 185 -345
224 -235 112 -351 172 -398 207 -28 22 -54 39 -58 39 -3 0 -48 34 -99 75 -73
58 -100 74 -124 73 -30 -1 -169 62 -181 83 -4 5 -20 9 -36 9 -45 0 -75 19
-216 136 -149 124 -212 168 -308 217 -38 19 -110 61 -160 93 -111 71 -224 134
-239 134 -6 0 -19 8 -27 17 -9 10 -35 34 -57 53 -23 19 -41 41 -42 48 0 6 -4
12 -9 12 -5 0 -35 25 -67 55 -33 30 -63 55 -69 55 -5 0 -21 12 -34 25 -13 14
-30 25 -38 25 -8 0 -50 36 -94 80 -47 48 -86 80 -98 80 -13 0 -55 33 -103 81
-133 130 -323 262 -420 292 -22 6 -43 19 -45 27 -2 8 -32 28 -66 43 -79 36
-69 29 -182 117 -53 41 -131 99 -173 129 -42 29 -96 70 -118 91 -23 21 -61 50
-85 65 -24 15 -58 40 -74 56 -36 34 -142 99 -161 99 -8 0 -14 5 -14 10 0 6 -6
10 -14 10 -8 0 -21 6 -28 13 -7 7 -60 41 -118 76 -58 34 -132 83 -165 108 -91
68 -215 149 -265 175 -25 12 -49 26 -55 30 -41 33 -133 88 -147 88 -9 0 -23 9
-31 20 -17 24 -180 147 -216 164 -14 6 -43 28 -65 49 -46 45 -418 231 -554
278 -30 10 -83 35 -118 54 -34 19 -72 35 -84 35 -23 0 -73 23 -109 51 -13 11
-34 19 -48 19 -13 0 -46 11 -74 25 -27 14 -82 33 -122 42 -40 8 -86 24 -103
34 -17 11 -45 19 -61 19 -19 0 -39 10 -58 30 -17 18 -33 26 -38 21 -8 -8 -103
48 -117 68 -6 9 -43 30 -116 65 -27 13 -54 33 -60 44 -9 20 -155 142 -170 142
-5 0 -46 33 -91 74 -76 67 -297 216 -322 216 -6 0 -11 4 -11 9 0 13 -127 141
-139 141 -5 0 -12 14 -16 31 -4 19 -15 33 -27 37 -11 2 -23 15 -28 28 -5 13
-24 31 -42 40 -37 19 -104 72 -153 121 -18 17 -48 39 -66 47 -19 9 -77 42
-129 75 -121 76 -187 111 -210 111 -10 0 -48 11 -84 25 -37 14 -80 25 -96 25
-17 0 -47 9 -67 20 -21 11 -46 20 -56 20 -22 0 -71 24 -115 57 -17 13 -47 29
-65 35 -17 6 -52 25 -77 41 -61 41 -200 184 -212 220 -6 15 -28 39 -50 53 -21
14 -43 35 -48 49 -5 13 -18 26 -29 30 -11 3 -29 25 -39 49 -14 31 -42 60 -103
108 -93 72 -159 140 -159 163 0 8 -4 15 -9 15 -17 0 -123 103 -149 145 -14 22
-33 45 -42 52 -10 7 -20 25 -23 40 -5 25 -28 54 -99 121 -13 12 -27 22 -32 22
-4 0 -27 14 -51 30 -24 16 -47 30 -52 30 -4 0 -19 6 -33 13 -14 8 -41 17 -60
20 -60 12 -77 31 -85 89 -4 29 -20 92 -36 141 -16 48 -29 97 -29 108 0 11 -13
60 -30 107 -40 117 -48 165 -65 383 -8 102 -25 253 -39 335 -33 198 -33 203
-56 549 -11 165 -29 379 -40 475 -11 96 -24 246 -30 333 -5 87 -12 162 -15
167 -11 18 -45 329 -55 510 -6 107 -14 267 -19 355 l-9 160 37 45 c76 92 91
122 116 246 20 94 36 142 79 229 49 100 56 121 71 227 10 76 30 159 55 235 22
65 54 165 71 222 16 57 50 150 74 206 55 127 88 278 110 508 14 153 19 176 55
268 52 130 102 294 150 496 50 206 55 237 80 523 11 129 25 251 30 270 23 86
82 149 255 270 236 166 460 392 553 560 17 30 76 179 132 330 106 286 174 439
278 625 76 135 226 487 280 655 22 69 68 229 101 355 84 323 144 489 275 768
128 272 240 525 321 724 30 74 96 228 146 341 197 446 257 633 384 1199 36
160 98 435 139 610 102 434 109 478 109 668 0 193 -13 257 -82 400 -60 122
-129 206 -281 342 -126 112 -165 167 -154 218 3 16 25 73 49 125 24 52 53 128
64 168 25 89 46 148 101 271 79 181 94 255 130 651 26 286 45 458 71 640 23
158 23 228 -2 680 -16 308 -1 697 33 835 21 85 22 114 24 510 1 274 5 441 13
480 7 35 14 215 18 436 l6 376 -28 84 c-16 46 -48 133 -72 193 -24 61 -48 129
-53 153 -6 24 -17 151 -25 283 -17 275 -27 329 -100 567 l-53 172 24 76 c28
87 30 161 10 261 -8 38 -19 96 -25 129 -6 33 -20 94 -31 135 -11 41 -27 147
-35 235 -17 192 -31 241 -161 597 -53 145 -96 279 -97 298 0 19 3 71 7 115 13
135 -38 361 -106 467 -19 31 -57 67 -107 102 -91 63 -143 121 -159 173 -6 21
-18 82 -26 136 -16 108 -19 113 -122 227 -104 116 -122 144 -205 331 -164 372
-151 353 -304 454 -140 93 -168 122 -201 207 -27 71 -39 86 -218 278 -56 60
-89 105 -111 155 -23 49 -61 102 -130 180 -115 131 -140 172 -149 244 -9 70
-30 108 -111 205 -36 44 -72 93 -79 110 -20 47 -52 71 -182 135 -65 32 -131
72 -146 88 -15 16 -39 58 -54 93 -76 187 -97 214 -474 595 -219 221 -302 312
-348 381 -70 105 -125 157 -249 233 -400 248 -512 330 -689 503 -103 100 -166
155 -197 168 -38 17 -76 22 -209 27 l-163 6 -60 37 c-33 20 -123 70 -200 110
-77 40 -167 92 -200 115 -76 53 -105 62 -239 80 -125 17 -137 24 -173 105 -33
74 -62 102 -168 165 -96 57 -136 74 -227 99 -50 14 -64 25 -115 82 -68 77
-107 102 -223 142 -47 17 -129 46 -183 66 -209 77 -461 123 -722 132 l-200 7
-43 33 c-64 48 -222 126 -342 169 -58 20 -141 54 -185 75 -110 52 -111 53
-233 41 -86 -9 -125 -8 -202 4 -52 8 -183 19 -290 25 -197 9 -234 16 -319 59
-40 21 -49 21 -269 15 -125 -4 -244 -4 -265 0 -22 4 -98 47 -187 106 -243 161
-272 171 -410 132 l-65 -19 -105 34 c-194 61 -325 88 -375 76z m140 -58 c28
-4 112 -27 188 -52 l139 -45 90 22 c49 13 99 23 112 23 34 0 152 -76 375 -240
12 -9 106 -15 311 -21 293 -9 295 -9 345 -36 47 -24 63 -27 245 -36 107 -6
227 -15 265 -21 39 -6 144 -9 235 -8 l165 2 71 -36 c39 -19 117 -52 175 -72
129 -45 237 -97 354 -171 l90 -57 185 7 c151 5 195 4 240 -9 30 -8 119 -29
198 -46 129 -27 272 -72 407 -128 28 -11 66 -23 86 -26 49 -7 109 -53 159
-119 47 -64 66 -76 174 -105 79 -22 229 -102 294 -156 18 -15 37 -46 46 -73
20 -61 42 -91 72 -102 13 -5 79 -19 146 -30 132 -23 140 -26 213 -81 28 -21
93 -58 145 -82 52 -24 125 -62 161 -85 91 -56 139 -70 276 -82 65 -6 149 -16
187 -22 l68 -10 160 -154 c194 -187 299 -267 583 -444 119 -74 238 -154 266
-178 27 -24 81 -92 121 -150 57 -86 106 -140 242 -272 444 -428 479 -470 554
-660 44 -113 82 -156 168 -190 154 -61 155 -62 260 -198 102 -131 154 -218
154 -257 0 -12 7 -45 16 -75 13 -45 32 -70 118 -159 85 -87 110 -121 144 -191
34 -71 60 -106 162 -213 101 -107 127 -141 161 -211 53 -112 98 -160 209 -225
97 -58 141 -95 165 -142 8 -15 51 -112 95 -214 103 -242 133 -295 230 -401
101 -110 129 -166 139 -276 12 -133 44 -182 196 -296 106 -80 123 -108 165
-275 32 -128 38 -200 26 -322 l-7 -80 89 -250 c50 -137 107 -293 127 -345 35
-89 39 -107 51 -272 9 -120 21 -210 38 -275 31 -122 66 -302 66 -342 0 -17
-13 -71 -29 -120 l-28 -89 24 -73 c59 -183 112 -381 122 -454 6 -44 16 -179
21 -299 l10 -219 54 -131 c30 -72 61 -156 70 -186 32 -114 46 -527 25 -745 -5
-55 -13 -316 -19 -580 -8 -448 -10 -485 -31 -555 -20 -71 -22 -100 -26 -499
-3 -298 -1 -474 8 -590 17 -207 16 -255 -10 -422 -29 -191 -48 -358 -71 -644
-31 -377 -36 -400 -130 -635 -31 -80 -74 -197 -95 -260 -21 -63 -55 -153 -76
-200 -50 -113 -55 -146 -34 -211 19 -56 49 -89 230 -254 102 -93 150 -153 198
-250 45 -89 64 -156 78 -273 19 -164 -1 -293 -141 -902 -49 -212 -109 -477
-134 -590 -56 -252 -119 -475 -187 -657 -46 -125 -96 -244 -374 -893 -46 -107
-125 -285 -175 -395 -215 -468 -260 -587 -365 -970 -37 -132 -85 -296 -107
-365 -49 -153 -181 -463 -248 -585 -142 -257 -183 -350 -305 -684 -105 -290
-158 -384 -314 -556 -111 -121 -223 -218 -362 -311 -138 -92 -194 -145 -232
-221 -39 -76 -46 -116 -62 -354 -10 -145 -24 -267 -41 -346 -38 -185 -120
-485 -166 -603 -54 -140 -63 -182 -87 -401 -25 -222 -44 -299 -111 -444 -27
-60 -50 -119 -50 -129 0 -24 -29 -123 -85 -291 -26 -78 -50 -174 -60 -240 -13
-95 -23 -126 -70 -225 -41 -88 -58 -137 -70 -210 -20 -114 -30 -137 -95 -215
l-49 -60 -1 -115 c0 -234 27 -613 65 -915 14 -104 29 -260 34 -345 6 -85 15
-189 21 -230 5 -41 19 -203 30 -360 23 -324 33 -426 61 -627 11 -79 28 -231
39 -338 20 -201 83 -542 120 -649 20 -58 43 -166 41 -196 0 -8 -2 -55 -5 -105
-3 -49 0 -108 6 -130 7 -28 6 -55 -2 -95 -8 -40 -9 -63 -1 -84 8 -21 8 -44 -1
-87 -9 -45 -9 -80 -1 -148 13 -105 44 -173 108 -237 26 -25 38 -44 30 -44 -8
0 -15 -4 -15 -9 0 -13 59 -61 76 -61 9 0 14 -11 14 -31 0 -22 6 -32 19 -36 10
-2 24 -16 30 -29 6 -13 15 -24 21 -24 5 0 10 -11 10 -25 0 -15 6 -25 14 -25 8
0 16 -7 20 -15 3 -8 12 -15 20 -15 16 0 66 -60 70 -84 1 -7 7 -20 13 -27 6 -8
12 -23 14 -34 2 -11 14 -24 27 -30 12 -5 22 -17 22 -26 0 -10 11 -20 25 -23
14 -4 25 -13 25 -21 0 -7 10 -21 22 -29 19 -14 20 -16 5 -16 -31 0 -17 -43 18
-58 32 -14 42 -33 90 -172 12 -35 27 -66 33 -68 8 -2 8 -8 0 -22 -14 -22 6
-54 29 -46 10 4 12 -1 7 -18 -3 -15 1 -34 11 -49 11 -18 14 -36 10 -61 -5 -24
-2 -42 9 -58 20 -28 20 -48 1 -48 -8 0 -15 -6 -15 -14 0 -7 7 -19 15 -26 10
-8 15 -31 15 -66 0 -29 4 -64 10 -78 7 -19 4 -46 -11 -103 -15 -61 -19 -105
-17 -198 2 -118 -7 -165 -33 -165 -7 0 -9 -17 -4 -49 5 -39 3 -55 -11 -77 -16
-24 -34 -91 -65 -249 -5 -27 -14 -61 -18 -75 -29 -87 -72 -236 -87 -300 -21
-94 -49 -156 -75 -163 -25 -7 -25 -37 1 -37 19 0 19 -1 1 -33 -10 -17 -26 -55
-35 -84 -10 -28 -27 -64 -39 -80 -21 -26 -42 -84 -54 -148 -3 -16 -11 -37 -18
-45 -7 -8 -25 -52 -40 -98 -16 -50 -40 -98 -61 -123 -19 -22 -34 -49 -34 -59
0 -10 -6 -23 -14 -29 -8 -6 -19 -32 -25 -56 -10 -38 -15 -45 -36 -45 -22 0
-25 -4 -25 -39 0 -22 -4 -42 -8 -45 -9 -5 -147 -278 -145 -286 1 -3 -7 -8 -18
-12 -10 -4 -19 -13 -19 -21 0 -7 -9 -30 -20 -52 -11 -22 -20 -45 -20 -52 0 -7
-4 -21 -9 -31 -23 -42 -81 -181 -81 -194 0 -9 -11 -32 -25 -52 -14 -20 -28
-49 -31 -64 -4 -15 -20 -50 -36 -78 -15 -28 -28 -63 -28 -77 0 -18 -5 -27 -15
-27 -21 0 -29 -24 -16 -47 7 -14 4 -28 -13 -58 -13 -22 -29 -58 -36 -80 -7
-22 -18 -44 -25 -50 -6 -5 -33 -59 -60 -120 -27 -60 -59 -123 -71 -140 -12
-16 -42 -69 -68 -116 -25 -48 -58 -98 -72 -113 -16 -15 -24 -32 -20 -41 3 -9
0 -15 -9 -15 -8 0 -15 -6 -15 -13 0 -17 -32 -78 -58 -112 -12 -15 -22 -34 -22
-41 0 -17 -52 -93 -85 -124 -14 -14 -42 -54 -61 -90 -18 -36 -54 -90 -79 -120
-25 -30 -45 -60 -45 -67 0 -7 -6 -16 -13 -20 -22 -13 -59 -73 -71 -113 -8 -26
-23 -47 -46 -62 -20 -14 -45 -44 -57 -70 -12 -26 -36 -57 -53 -69 -16 -13 -30
-26 -30 -31 0 -4 -29 -45 -64 -91 -35 -47 -71 -97 -79 -113 -9 -16 -31 -41
-50 -56 -19 -15 -47 -46 -62 -70 -15 -24 -45 -56 -66 -71 -22 -16 -70 -66
-108 -111 -69 -82 -196 -206 -212 -206 -8 0 -109 -98 -166 -161 -34 -37 -63
-61 -110 -91 -24 -15 -43 -32 -43 -38 0 -6 -5 -8 -10 -5 -6 4 -30 -12 -53 -35
-23 -24 -64 -57 -92 -75 -27 -17 -56 -39 -64 -48 -7 -10 -18 -17 -23 -17 -6 0
-33 -20 -62 -45 -128 -113 -170 -144 -245 -184 -44 -24 -82 -50 -85 -57 -3 -8
-12 -14 -20 -14 -8 0 -36 -18 -61 -40 -36 -31 -54 -40 -84 -40 -29 0 -46 -8
-78 -39 -23 -21 -54 -41 -68 -45 -14 -4 -38 -19 -53 -35 -21 -22 -34 -28 -55
-24 -19 4 -29 1 -33 -11 -6 -17 -58 -46 -82 -46 -7 0 -27 -13 -42 -30 -16 -17
-38 -30 -52 -30 -24 0 -44 -9 -148 -68 -30 -17 -102 -55 -160 -83 -58 -29
-109 -58 -113 -66 -5 -7 -26 -13 -51 -13 -36 0 -45 -4 -54 -25 -6 -14 -18 -25
-26 -25 -8 0 -36 -11 -62 -25 -26 -14 -55 -25 -65 -25 -9 0 -30 -7 -46 -15
-87 -45 -285 -135 -298 -135 -8 0 -15 -4 -15 -10 0 -5 -15 -10 -32 -10 -18 -1
-51 -7 -73 -15 -22 -8 -52 -15 -67 -15 -18 0 -28 -5 -28 -15 0 -10 -10 -15
-29 -15 -16 0 -34 -7 -41 -15 -7 -8 -29 -19 -50 -25 -21 -6 -43 -17 -49 -24
-10 -12 -16 -12 -41 2 -27 16 -29 15 -47 -6 -19 -23 -176 -88 -248 -102 -22
-4 -60 -17 -85 -28 -25 -12 -55 -22 -68 -22 -13 0 -32 -4 -42 -10 -10 -5 -53
-15 -95 -21 -42 -6 -83 -18 -91 -26 -12 -12 -20 -13 -43 -3 -24 9 -34 8 -65
-9 -20 -12 -41 -21 -47 -21 -6 0 -24 -9 -40 -20 -15 -12 -54 -26 -86 -31 -32
-6 -81 -17 -109 -25 -61 -17 -95 -18 -127 -3 -19 9 -30 8 -48 -4 -35 -23 -127
-47 -176 -47 -32 0 -46 -5 -55 -20 -11 -17 -24 -20 -90 -20 -57 0 -81 -4 -93
-16 -13 -14 -24 -15 -65 -7 -28 6 -55 6 -64 1 -10 -5 -31 -5 -53 1 -34 10 -41
8 -73 -17 -39 -32 -117 -56 -123 -39 -2 7 -11 7 -23 2 -23 -9 -34 -11 -96 -13
-36 -2 -48 -6 -48 -18 0 -8 -4 -12 -10 -9 -5 3 -10 15 -10 26 0 18 -4 20 -31
14 -17 -4 -40 -16 -50 -26 -21 -21 -113 -27 -124 -9 -10 16 -50 12 -76 -8 -19
-15 -50 -20 -154 -26 -71 -4 -152 -11 -180 -15 -29 -5 -51 -5 -53 0 -2 5 -10
9 -18 9 -8 0 -17 7 -20 15 -7 18 -33 20 -40 2 -3 -8 -17 -11 -38 -9 -18 2 -46
-3 -62 -11 -25 -13 -33 -13 -54 -1 -33 18 -40 17 -40 -4 0 -14 -13 -21 -51
-30 -71 -17 -78 -16 -72 9 5 20 3 21 -28 14 -19 -4 -61 -11 -93 -15 -37 -4
-63 -13 -71 -23 -9 -13 -28 -17 -74 -17 -34 0 -70 -5 -80 -12 -25 -15 -51 -4
-51 23 0 16 -4 19 -17 14 -36 -15 -80 -25 -143 -34 -65 -9 -65 -8 -103 25 -20
19 -40 34 -43 34 -4 0 -4 -20 -2 -45 3 -25 4 -45 2 -45 -3 0 -21 11 -42 25
-53 35 -130 50 -152 30 -14 -13 -19 -13 -36 0 -28 21 -47 19 -41 -5 4 -16 0
-20 -17 -20 -12 0 -27 5 -34 12 -7 7 -15 8 -24 1 -7 -5 -34 -8 -60 -5 -39 3
-48 8 -48 23 0 23 -32 26 -50 4 -9 -11 -16 -13 -24 -5 -5 5 -25 10 -44 10 -22
0 -40 7 -48 18 -12 16 -14 16 -36 -5 -17 -16 -28 -19 -38 -13 -20 13 -87 13
-111 0 -10 -6 -19 -17 -19 -26 0 -12 -6 -11 -37 5 -23 11 -84 24 -157 32 -77
9 -120 18 -123 26 -6 15 -43 18 -43 3 0 -5 -4 -10 -10 -10 -5 0 -10 7 -10 15
0 11 -11 15 -38 15 -21 0 -48 7 -60 16 -26 18 -52 12 -52 -11 0 -16 -11 -18
-59 -9 -18 4 -31 13 -31 22 0 11 -8 13 -37 9 -29 -5 -42 -2 -65 18 -36 30 -48
31 -48 4 0 -27 -15 -16 -46 32 -28 45 -72 55 -81 19 -3 -13 -14 -20 -29 -20
-24 0 -32 14 -14 25 6 3 10 13 10 22 0 13 -8 14 -42 9 -23 -4 -47 -11 -54 -17
-8 -6 -51 -4 -128 6 -65 8 -119 15 -120 15 -2 0 -6 9 -9 20 -3 14 -14 20 -31
20 -14 0 -26 -5 -26 -10 0 -18 -60 20 -72 45 -13 29 -25 31 -49 9 -17 -15 -20
-15 -49 10 -34 28 -55 26 -47 -6 4 -14 2 -18 -10 -14 -8 3 -21 6 -28 6 -7 0
-16 14 -20 30 -7 32 -14 35 -43 21 -9 -5 -34 -14 -54 -20 -32 -10 -42 -10 -60
3 -12 9 -39 16 -59 16 -25 0 -45 8 -63 25 -31 29 -43 30 -70 10 -26 -20 -33
-19 -39 5 -5 20 -16 22 -112 24 -40 1 -55 12 -55 41 0 12 -7 26 -16 29 -21 8
-45 -11 -37 -30 4 -12 0 -13 -22 -4 -14 5 -38 10 -52 10 -16 0 -27 7 -30 20
-4 14 -14 20 -32 20 -14 0 -39 7 -55 15 -16 9 -36 13 -43 11 -8 -3 -13 2 -13
14 0 23 -28 27 -36 5 -4 -8 -10 -12 -15 -9 -11 7 -59 14 -141 21 -41 3 -57 9
-61 22 -4 16 -102 49 -114 38 -3 -4 -23 3 -44 13 -21 11 -44 20 -52 20 -8 0
-35 11 -61 25 -26 14 -56 25 -66 25 -27 0 -100 29 -129 52 -28 22 -58 23 -63
3 -2 -11 -16 -6 -58 20 -30 19 -62 35 -71 35 -17 0 -87 27 -146 57 -25 12 -36
13 -47 4 -11 -9 -15 -8 -19 3 -3 8 -34 23 -69 35 -37 12 -69 30 -76 42 -7 11
-19 18 -27 15 -23 -8 -95 27 -95 47 0 18 -26 23 -49 8 -10 -7 -24 -3 -43 11
-16 11 -44 24 -62 29 -18 5 -45 20 -60 34 -16 15 -39 25 -57 25 -22 0 -46 14
-88 50 -32 28 -63 50 -70 50 -7 0 -31 16 -54 35 -23 20 -59 40 -82 46 -105 29
-137 43 -224 104 -52 36 -104 65 -116 65 -11 0 -45 18 -75 41 -30 23 -81 54
-112 70 -41 21 -59 36 -64 55 -4 16 -12 24 -23 21 -25 -6 -87 29 -111 63 -12
16 -25 30 -30 30 -4 0 -31 15 -59 34 -28 19 -65 39 -84 45 -18 6 -40 24 -50
41 -10 16 -28 35 -40 41 -12 7 -39 27 -60 46 -24 21 -45 32 -54 29 -10 -4 -21
2 -30 14 -8 11 -21 20 -28 20 -8 0 -22 11 -31 24 -8 14 -25 26 -37 28 -14 2
-23 11 -25 26 -4 27 -27 39 -46 23 -11 -9 -16 -5 -26 20 -7 17 -25 38 -39 47
-50 31 -141 130 -141 152 0 17 -4 21 -20 17 -28 -7 -74 17 -90 48 -8 14 -24
28 -36 31 -14 4 -24 16 -28 35 -5 25 -9 29 -29 24 -19 -5 -32 4 -72 48 -62 67
-92 104 -97 116 -1 5 -25 24 -53 43 -28 18 -58 48 -67 68 -10 19 -27 38 -38
42 -15 5 -20 16 -20 43 0 27 -4 35 -18 35 -25 0 -42 20 -42 48 0 15 -7 26 -20
29 -22 6 -26 19 -7 26 21 7 -11 36 -54 49 -25 7 -39 17 -39 27 0 18 -75 94
-160 163 -100 80 -190 191 -206 254 -8 31 -29 48 -54 41 -14 -3 -21 1 -26 17
-4 11 -20 37 -35 57 -16 20 -29 39 -29 42 0 4 -11 17 -25 31 -15 15 -25 36
-25 54 0 22 -6 31 -21 35 -13 3 -18 10 -14 17 4 6 -4 24 -18 38 -28 29 -49 75
-51 107 -1 11 -7 19 -14 17 -9 -2 -11 4 -7 18 4 11 2 20 -4 20 -6 0 -22 12
-36 27 -24 27 -24 28 -4 35 16 6 18 11 9 28 -6 11 -16 20 -21 20 -6 0 -8 7 -5
16 8 20 -11 44 -34 44 -13 0 -16 6 -13 23 3 14 -2 29 -11 36 -9 8 -16 25 -16
40 -1 14 -14 42 -30 61 -17 19 -30 42 -30 52 0 9 -18 51 -40 93 -22 42 -38 80
-36 84 3 4 -4 22 -15 39 -23 39 -24 55 -4 72 20 16 20 54 0 47 -7 -3 -24 2
-36 12 -18 14 -20 21 -10 39 15 28 14 32 -9 32 -17 0 -19 3 -10 19 15 29 12
41 -11 50 -14 5 -23 18 -25 35 -1 15 -14 57 -28 94 -41 111 -63 192 -54 198
16 10 8 41 -23 82 -24 33 -29 47 -24 74 11 59 -60 293 -102 340 -15 17 -14 19
11 39 33 26 36 64 4 56 -11 -3 -35 1 -52 11 -25 13 -28 17 -13 20 14 3 17 9
12 25 -4 12 -9 39 -12 60 -4 31 -9 37 -29 37 -18 0 -25 8 -33 38 -6 20 -11 44
-11 53 0 9 -9 28 -20 42 -13 16 -20 40 -20 69 0 45 -22 88 -44 88 -15 0 -16
31 -2 41 18 14 -4 39 -34 39 -27 0 -29 2 -18 19 10 16 8 28 -14 68 -14 26 -28
60 -32 76 -4 15 -16 37 -28 49 -20 20 -20 22 -4 49 18 31 14 49 -10 49 -11 0
-14 15 -14 64 0 48 -4 65 -15 70 -8 3 -15 12 -15 21 0 8 -4 23 -9 33 -5 9 -17
39 -26 65 -16 46 -16 50 1 82 l18 33 -32 30 c-32 30 -41 52 -22 52 15 0 12 47
-6 82 -10 19 -14 42 -10 63 4 17 0 49 -7 71 -9 24 -12 61 -9 98 4 52 3 58 -12
53 -17 -7 -22 8 -6 18 6 4 8 45 5 108 -2 56 -4 109 -4 117 1 8 3 56 4 105 6
166 21 299 39 333 13 25 15 37 6 47 -9 10 -8 19 4 37 8 13 18 43 22 68 3 25
12 67 20 94 8 27 14 64 14 82 0 19 6 34 15 38 8 3 12 12 9 19 -3 8 2 17 10 20
11 5 16 20 16 50 0 42 16 107 30 117 3 3 15 27 27 54 16 39 19 56 11 88 -7 31
-5 45 6 57 23 27 29 76 12 108 -9 19 -11 34 -5 44 13 22 11 65 -5 79 -11 8
-12 18 -5 37 11 29 12 62 10 238 -1 72 3 153 8 180 6 28 15 232 21 455 26
1037 32 1246 50 1690 11 261 35 887 55 1390 19 503 43 1079 52 1280 14 280 18
546 18 1140 0 850 0 845 -60 1001 -29 75 -36 112 -50 256 -15 160 -19 193 -45
358 -6 39 -33 135 -60 215 -57 171 -56 170 -70 330 -6 69 -22 195 -35 280 -19
124 -27 225 -35 505 -7 193 -15 409 -20 480 -5 72 -9 192 -9 268 -1 138 -12
194 -42 213 -8 5 -133 11 -279 14 -255 5 -267 6 -310 29 -133 71 -319 219
-449 357 -153 163 -238 312 -366 638 -84 214 -115 281 -225 480 -168 305 -275
551 -378 866 -63 194 -65 207 -102 595 -31 337 -41 420 -66 550 -30 155 -132
520 -245 878 -132 414 -147 490 -214 1046 -14 117 -38 273 -52 345 -23 114
-26 164 -30 383 -5 283 3 368 62 626 63 271 128 441 227 584 51 74 208 233
230 233 7 0 60 21 117 45 64 28 132 49 174 55 83 12 143 37 177 74 20 23 25
39 28 99 4 64 0 83 -32 165 -36 93 -50 156 -61 272 -15 164 -39 302 -72 428
-30 115 -37 158 -41 272 l-4 135 45 140 c62 190 64 198 88 385 11 91 36 225
55 299 l34 133 0 396 0 395 30 96 c64 210 74 287 90 686 14 364 24 459 61 565
155 440 261 841 299 1128 35 264 72 381 214 676 l76 159 0 185 0 184 51 84
c85 141 136 315 160 545 14 136 113 454 191 611 15 32 48 119 73 195 26 76 73
196 107 266 54 115 62 139 69 217 14 152 42 200 214 370 188 186 349 372 414
479 18 30 63 91 100 135 37 45 86 107 110 138 23 31 58 69 77 83 55 42 113
122 120 166 10 59 36 85 143 138 53 27 141 83 196 124 65 49 133 90 194 116
105 46 155 79 175 119 7 15 16 73 19 128 6 118 28 179 76 213 18 13 86 47 153
77 66 29 141 66 167 80 85 50 276 181 351 241 86 69 116 85 260 143 223 88
352 170 557 355 126 114 167 145 348 264 73 48 165 122 235 187 142 133 194
176 362 302 73 55 173 135 223 177 49 43 98 83 110 90 12 8 79 18 165 23 124
9 156 15 220 41 43 17 106 33 145 37 90 9 105 15 184 73 36 26 128 83 205 126
l138 77 112 -7 c100 -6 117 -4 170 15 32 13 141 78 242 146 100 67 195 129
211 137 16 9 73 20 128 27 55 6 156 22 225 36 69 13 175 29 235 34 213 21 246
27 272 52 30 28 60 84 80 150 13 47 74 128 95 128 6 0 68 -27 138 -61 125 -58
132 -61 262 -75 73 -8 188 -28 254 -44 106 -26 140 -30 260 -30 238 0 307 25
448 160 96 92 134 114 170 100 14 -5 67 -38 119 -73 52 -36 109 -68 127 -72
57 -13 115 4 202 57 149 91 164 98 322 139 155 39 157 40 209 24 94 -28 183
-36 276 -25 123 15 280 55 385 97 109 43 141 52 181 47 17 -2 53 -6 80 -9z"/>
</g>
</svg>
