<?xml version="1.0" standalone="no"?>
<!DOCTYPE svg PUBLIC "-//W3C//DTD SVG 20010904//EN"
 "http://www.w3.org/TR/2001/REC-SVG-20010904/DTD/svg10.dtd">
<svg version="1.0" xmlns="http://www.w3.org/2000/svg"
 width="6244.000000pt" height="4680.000000pt" viewBox="0 0 6244.000000 4680.000000"
 preserveAspectRatio="xMidYMid meet">
<metadata>
Created by potrace 1.15, written by Peter Selinger 2001-2017
</metadata>
<g transform="translate(0.000000,4680.000000) scale(0.100000,-0.100000)"
fill="#313131" stroke="none">
<path d="M32850 37935 c-49 -24 -122 -47 -210 -67 -197 -43 -195 -43 -294 -14
-99 29 -98 29 -286 -25 -70 -20 -122 -43 -160 -68 -131 -90 -162 -93 -252 -28
-152 107 -164 106 -307 -26 -36 -33 -90 -71 -120 -86 -52 -24 -67 -26 -191
-26 -118 1 -145 4 -215 26 -53 18 -115 29 -185 33 -110 8 -155 22 -240 76
-116 74 -160 48 -224 -131 -9 -26 -25 -54 -36 -64 -21 -19 -120 -34 -230 -35
-36 0 -94 -9 -130 -21 -35 -11 -124 -26 -196 -33 l-132 -13 -81 -61 c-44 -34
-125 -90 -180 -126 l-99 -65 -116 6 -116 6 -43 -30 c-23 -17 -76 -47 -117 -68
-41 -21 -95 -56 -120 -80 -45 -41 -48 -42 -131 -47 -64 -4 -97 -12 -137 -32
-46 -23 -62 -26 -164 -26 l-113 0 -83 -75 c-46 -42 -143 -120 -215 -175 -73
-54 -196 -157 -274 -227 -78 -71 -170 -145 -203 -164 -114 -64 -155 -94 -235
-170 -190 -180 -307 -256 -512 -328 -73 -27 -106 -46 -167 -96 -41 -34 -99
-77 -128 -94 -29 -17 -89 -56 -132 -86 -47 -33 -105 -63 -141 -74 -69 -20
-169 -82 -188 -115 -6 -11 -14 -69 -17 -128 -7 -123 -12 -132 -93 -168 -133
-59 -176 -83 -232 -130 -33 -28 -85 -62 -115 -76 -127 -57 -123 -53 -141 -124
-16 -60 -23 -69 -93 -133 -41 -37 -85 -84 -97 -105 -13 -20 -45 -61 -71 -91
-27 -30 -61 -77 -75 -105 -14 -28 -51 -78 -83 -111 -31 -33 -75 -85 -98 -117
-23 -31 -70 -80 -104 -110 -160 -136 -198 -193 -206 -312 -4 -60 -12 -88 -58
-181 -29 -60 -65 -153 -80 -205 -15 -52 -43 -126 -62 -165 -19 -38 -62 -149
-95 -245 -50 -149 -60 -191 -67 -280 -14 -170 -60 -322 -130 -425 -45 -67 -53
-104 -39 -190 18 -114 10 -147 -79 -333 -91 -188 -125 -292 -141 -437 -6 -55
-16 -132 -22 -172 -14 -96 -150 -592 -190 -690 -17 -43 -40 -101 -50 -129 -24
-68 -40 -266 -38 -505 1 -215 -13 -309 -72 -485 l-30 -92 11 -183 c16 -298 15
-336 -26 -500 -21 -85 -39 -191 -45 -259 -10 -131 -36 -238 -76 -325 -26 -57
-28 -68 -28 -200 0 -128 3 -150 32 -250 24 -81 36 -153 47 -271 13 -144 19
-171 55 -267 47 -122 49 -139 21 -185 -26 -42 -62 -57 -180 -72 -61 -8 -105
-19 -122 -31 -15 -10 -33 -19 -41 -19 -13 0 -49 -27 -119 -89 -51 -45 -123
-142 -160 -215 -69 -136 -142 -409 -178 -664 -23 -161 -25 -287 -5 -392 45
-246 64 -368 75 -470 40 -397 46 -430 135 -710 132 -420 215 -719 239 -865 9
-49 25 -202 36 -340 24 -296 37 -372 89 -525 101 -300 163 -442 305 -699 96
-172 129 -245 231 -514 57 -150 174 -315 323 -455 87 -82 210 -171 282 -206
62 -29 71 -31 185 -30 66 0 152 4 191 8 65 8 73 7 92 -12 35 -35 45 -93 31
-180 -13 -88 -7 -232 18 -396 13 -90 14 -123 4 -185 -16 -107 -14 -133 18
-341 16 -102 32 -237 36 -300 6 -99 13 -129 45 -215 60 -159 71 -215 90 -481
7 -100 13 -133 39 -192 16 -40 35 -96 41 -124 17 -78 25 -974 11 -1248 -10
-207 -48 -1156 -86 -2185 -9 -231 -20 -499 -26 -595 -5 -96 -14 -398 -19 -670
-9 -435 -14 -549 -36 -700 -3 -19 -7 -60 -10 -90 -2 -30 -9 -57 -14 -58 -6 -2
-7 -9 -3 -15 4 -8 2 -8 -9 1 -12 10 -25 6 -71 -20 -31 -18 -56 -38 -57 -44 0
-19 -36 -45 -54 -38 -11 4 -16 1 -16 -13 0 -24 -19 -43 -42 -43 -10 0 -18 -3
-18 -7 0 -5 -12 -9 -27 -10 -16 0 -46 -4 -68 -7 -22 -2 -83 -8 -135 -11 -52
-3 -102 -8 -112 -11 -9 -2 -19 0 -23 6 -7 11 -30 7 -70 -10 -43 -18 -61 -24
-87 -27 -14 -1 -50 -12 -78 -23 -28 -11 -55 -18 -60 -15 -4 3 -10 -2 -14 -10
-3 -9 -19 -15 -41 -15 -24 0 -35 -5 -35 -14 0 -10 -16 -17 -45 -21 -24 -4 -49
-13 -55 -20 -5 -7 -21 -10 -35 -7 -18 3 -25 0 -25 -10 0 -11 -16 -17 -52 -21
-32 -4 -60 -14 -73 -27 -14 -13 -24 -17 -27 -10 -2 8 -17 5 -48 -8 -25 -10
-69 -25 -98 -33 -32 -8 -58 -21 -63 -32 -6 -10 -16 -16 -22 -14 -12 4 -90 -35
-118 -59 -8 -8 -21 -14 -27 -14 -7 0 -12 -4 -12 -10 0 -5 -17 -17 -37 -26 -69
-32 -199 -148 -227 -202 -10 -20 -36 -43 -66 -60 -28 -15 -50 -34 -50 -43 0
-9 -8 -23 -17 -30 -16 -13 -17 -12 -4 4 8 9 11 20 8 24 -8 8 -37 -16 -37 -31
0 -12 -95 -86 -110 -86 -5 0 -14 -9 -20 -20 -6 -11 -17 -20 -24 -20 -8 0 -21
-11 -30 -25 -9 -14 -23 -25 -30 -25 -16 0 -172 -115 -238 -176 -26 -24 -51
-44 -56 -44 -5 0 -15 -11 -22 -25 -7 -14 -21 -25 -31 -25 -10 0 -39 -18 -64
-40 -25 -22 -50 -40 -56 -40 -5 0 -9 -7 -9 -15 0 -8 -9 -15 -20 -15 -11 0 -20
-6 -20 -13 0 -7 -15 -19 -34 -27 -19 -7 -40 -24 -47 -37 -7 -12 -18 -23 -26
-23 -7 0 -18 -9 -25 -20 -7 -11 -19 -20 -26 -20 -7 0 -11 -4 -8 -9 6 -9 -56
-61 -73 -61 -6 0 -13 -11 -17 -25 -4 -17 -13 -25 -28 -25 -15 0 -26 -11 -38
-40 -12 -28 -23 -40 -37 -40 -12 0 -21 -5 -21 -11 0 -5 -4 -7 -10 -4 -5 3 -10
1 -10 -4 0 -6 -11 -21 -25 -32 -13 -12 -27 -35 -30 -50 -4 -16 -11 -29 -16
-29 -6 0 -48 -38 -95 -85 -46 -46 -97 -91 -113 -100 -16 -8 -55 -39 -88 -70
-32 -30 -63 -55 -68 -55 -6 0 -21 -13 -34 -29 -13 -16 -29 -27 -36 -25 -6 3
-20 -4 -30 -16 -10 -11 -22 -20 -28 -20 -5 0 -18 -11 -29 -25 -11 -15 -38 -30
-64 -36 -24 -6 -44 -17 -44 -25 0 -7 -11 -19 -24 -26 -13 -7 -45 -25 -73 -40
-27 -14 -87 -49 -133 -77 -47 -28 -90 -51 -96 -51 -7 0 -14 -7 -18 -15 -3 -8
-12 -15 -21 -15 -8 0 -15 -4 -15 -9 0 -11 -56 -41 -75 -41 -15 0 -47 -35 -40
-42 3 -3 -3 -8 -15 -11 -11 -3 -18 -1 -14 4 3 5 3 9 -1 9 -6 0 -47 -22 -55
-30 -8 -8 -60 -36 -106 -58 -23 -11 -45 -25 -48 -31 -4 -6 -16 -11 -27 -11
-10 0 -19 -4 -19 -9 0 -5 -9 -12 -19 -16 -11 -3 -23 -15 -27 -27 -4 -15 -8
-17 -14 -8 -11 18 -29 4 -23 -18 3 -13 -5 -21 -30 -30 -18 -7 -41 -12 -50 -12
-9 0 -17 -4 -17 -10 0 -5 -11 -10 -24 -10 -16 0 -32 -11 -47 -32 -13 -17 -25
-26 -27 -20 -5 17 -20 15 -48 -7 -14 -11 -57 -32 -97 -47 -40 -14 -81 -32 -93
-40 -12 -7 -46 -20 -77 -29 -31 -9 -59 -20 -62 -25 -3 -4 -14 -6 -25 -3 -11 3
-20 1 -20 -5 0 -6 -17 -16 -37 -23 -21 -7 -54 -19 -73 -27 -19 -9 -41 -15 -47
-13 -7 1 -13 -5 -13 -14 0 -9 -9 -15 -25 -15 -13 0 -28 -8 -34 -17 -7 -14 -13
-15 -21 -6 -9 8 -21 5 -47 -13 -20 -13 -42 -24 -49 -24 -8 0 -14 -7 -14 -15 0
-15 -3 -16 -55 -19 -17 0 -43 -11 -57 -22 -15 -12 -41 -27 -57 -34 -17 -7 -33
-21 -36 -31 -9 -26 -48 -51 -69 -43 -10 4 -16 1 -17 -7 0 -8 -34 -36 -75 -63
-41 -27 -74 -54 -75 -60 -1 -6 -4 0 -8 14 l-8 25 -13 -27 c-13 -27 -76 -68
-105 -68 -18 0 -19 -12 -2 -29 10 -11 6 -12 -20 -6 -25 5 -34 2 -42 -13 -5
-10 -29 -32 -53 -48 -24 -16 -58 -44 -77 -61 -19 -18 -42 -33 -53 -33 -10 0
-18 -7 -18 -15 0 -8 -7 -15 -15 -15 -8 0 -15 -6 -15 -12 0 -7 -26 -21 -58 -32
-31 -10 -59 -22 -62 -25 -12 -16 -186 -97 -201 -94 -9 2 -22 -3 -29 -12 -9
-11 -9 -15 -1 -15 7 0 10 -4 6 -9 -3 -6 -14 -9 -25 -8 -19 1 -140 -51 -151
-66 -11 -15 -79 -47 -99 -47 -11 0 -20 -7 -20 -15 0 -8 -8 -15 -18 -15 -17 0
-113 -66 -120 -82 -2 -5 -10 -8 -18 -8 -8 0 -14 -4 -14 -10 0 -5 -4 -10 -10
-10 -6 0 -19 -9 -31 -21 -13 -13 -27 -18 -40 -14 -18 6 -20 4 -14 -16 6 -17 4
-21 -7 -17 -15 6 -118 -66 -118 -82 0 -6 -7 -10 -15 -10 -8 0 -15 -6 -15 -14
0 -8 -22 -28 -50 -45 -27 -17 -55 -40 -62 -51 -7 -11 -19 -20 -27 -20 -8 0
-26 -11 -40 -23 -34 -31 -199 -157 -206 -157 -3 0 -23 -11 -45 -25 -22 -14
-47 -25 -55 -25 -9 0 -14 -4 -10 -9 3 -5 1 -12 -5 -16 -6 -4 -8 -11 -5 -16 4
-5 -6 -9 -20 -9 -27 0 -55 -20 -55 -39 0 -5 -21 -24 -47 -42 -27 -17 -54 -40
-61 -50 -7 -11 -20 -19 -28 -19 -8 0 -14 -5 -14 -10 0 -6 -11 -15 -25 -20 -14
-5 -25 -16 -25 -25 0 -14 -11 -19 -36 -16 -6 1 -16 -10 -22 -23 -7 -16 -24
-27 -54 -34 -53 -14 -79 -31 -60 -39 13 -5 0 -16 -48 -40 -8 -4 -23 -17 -33
-30 -10 -13 -27 -23 -38 -23 -10 0 -19 -7 -19 -15 0 -8 -6 -15 -14 -15 -7 0
-19 -7 -26 -15 -7 -9 -41 -29 -74 -45 -34 -17 -88 -52 -121 -80 -110 -90 -123
-100 -132 -100 -6 0 -15 -11 -21 -25 -6 -14 -18 -25 -27 -25 -14 0 -19 -12
-16 -32 0 -5 -8 -8 -18 -8 -11 0 -23 -9 -26 -20 -3 -11 -13 -20 -21 -20 -8 0
-14 -4 -14 -10 0 -5 -7 -10 -15 -10 -8 0 -24 -13 -37 -30 -12 -16 -27 -30 -34
-30 -7 0 -17 -6 -21 -12 -4 -7 -29 -23 -54 -36 -25 -13 -63 -37 -84 -54 -21
-18 -46 -33 -56 -33 -10 -1 -27 -9 -37 -18 -10 -9 -24 -17 -30 -17 -7 0 -12
-6 -12 -14 0 -8 -10 -18 -22 -22 -25 -8 -98 -62 -111 -81 -4 -7 -17 -13 -27
-13 -11 0 -20 -6 -20 -12 0 -7 -17 -21 -38 -31 -69 -34 -118 -62 -147 -85 -15
-12 -36 -22 -46 -22 -11 0 -19 -4 -19 -8 0 -5 -22 -21 -50 -36 -27 -15 -54
-36 -60 -46 -5 -10 -20 -22 -32 -26 -13 -4 -43 -22 -67 -41 -25 -18 -55 -36
-68 -39 -14 -4 -22 -12 -19 -19 4 -13 -33 -35 -59 -35 -7 0 -41 -27 -75 -60
-34 -33 -66 -60 -71 -60 -5 0 -12 -1 -16 -1 -8 -1 -78 -54 -101 -76 -7 -7 -17
-13 -22 -13 -5 0 -18 -10 -29 -21 -11 -12 -29 -27 -39 -33 -55 -32 -104 -69
-109 -81 -3 -8 -9 -15 -13 -15 -5 0 -22 -12 -38 -27 -53 -50 -110 -93 -125
-93 -7 0 -19 -11 -25 -25 -6 -14 -16 -25 -21 -25 -5 0 -28 -16 -51 -35 -23
-19 -48 -35 -55 -35 -7 0 -15 -6 -18 -13 -3 -8 -36 -30 -75 -50 -38 -20 -91
-57 -118 -82 -26 -25 -51 -45 -56 -45 -5 0 -30 -17 -56 -38 -56 -44 -86 -62
-107 -62 -8 0 -15 -6 -15 -14 0 -7 -7 -19 -15 -26 -12 -10 -18 -10 -30 0 -12
10 -15 10 -15 -3 0 -8 -12 -25 -26 -38 -14 -13 -33 -32 -42 -41 -9 -10 -22
-18 -29 -18 -7 0 -22 -9 -33 -20 -12 -12 -26 -18 -31 -14 -7 4 -9 -1 -5 -14 6
-17 2 -23 -18 -28 -14 -3 -26 -9 -26 -13 0 -4 -16 -13 -35 -21 -20 -8 -43 -22
-52 -32 -9 -10 -22 -18 -30 -18 -7 0 -13 -4 -13 -9 0 -5 -11 -12 -25 -15 -15
-4 -25 -14 -25 -24 0 -13 -2 -14 -9 -3 -13 20 -50 4 -57 -25 -4 -14 -13 -24
-24 -24 -9 0 -33 -13 -51 -30 -19 -16 -37 -30 -41 -30 -5 0 -8 -6 -8 -13 0 -8
-17 -22 -37 -33 -21 -11 -38 -27 -38 -34 0 -16 -37 -50 -54 -50 -6 0 -17 -13
-25 -29 -8 -15 -27 -36 -41 -45 -15 -10 -31 -30 -36 -45 -6 -16 -21 -33 -34
-39 -13 -6 -31 -24 -39 -40 -8 -16 -22 -32 -31 -35 -8 -4 -15 -13 -15 -20 0
-8 -7 -20 -15 -27 -8 -7 -17 -27 -21 -46 -4 -24 -12 -34 -25 -34 -12 0 -19 -7
-19 -20 0 -11 -6 -20 -14 -20 -8 0 -24 -15 -35 -33 -24 -39 -144 -157 -160
-157 -6 0 -11 -8 -11 -19 0 -23 -39 -73 -51 -66 -5 4 -9 0 -9 -8 0 -8 -15 -18
-32 -24 -22 -6 -33 -15 -32 -26 2 -20 -40 -53 -78 -62 -14 -4 -30 -17 -36 -30
-6 -14 -30 -36 -53 -51 -23 -14 -46 -39 -52 -55 -6 -16 -14 -29 -18 -29 -15 0
-70 -60 -64 -70 3 -6 -3 -10 -15 -10 -12 0 -18 -4 -15 -10 8 -13 -39 -60 -60
-60 -8 0 -15 -9 -15 -20 0 -11 -4 -20 -10 -20 -5 0 -10 -7 -10 -15 0 -8 -6
-15 -12 -16 -14 0 -108 -111 -108 -126 0 -6 -9 -18 -20 -28 -10 -9 -18 -22
-17 -28 1 -6 -10 -17 -25 -24 -16 -8 -31 -26 -34 -41 -4 -15 -33 -53 -66 -84
-32 -31 -58 -64 -58 -72 0 -8 -5 -18 -10 -21 -15 -9 -100 -140 -100 -154 0 -6
-7 -11 -16 -11 -10 0 -14 -6 -10 -15 3 -10 -4 -20 -22 -29 -15 -8 -35 -32 -45
-55 -10 -22 -36 -60 -58 -83 -21 -23 -39 -50 -39 -60 0 -10 -7 -18 -15 -18 -8
0 -15 -7 -15 -15 0 -9 -16 -39 -36 -67 -19 -29 -44 -72 -55 -95 -11 -24 -24
-43 -29 -43 -6 0 -10 -7 -10 -15 0 -8 -7 -15 -15 -15 -10 0 -15 -10 -15 -29 0
-16 -7 -36 -15 -45 -8 -8 -15 -18 -15 -22 0 -3 -8 -14 -17 -23 -23 -21 -43
-57 -43 -76 0 -8 -9 -19 -21 -25 -13 -8 -19 -19 -17 -35 3 -22 -47 -104 -64
-105 -5 0 -8 -6 -8 -14 0 -7 -18 -47 -40 -87 -22 -41 -56 -107 -76 -147 -19
-40 -49 -93 -66 -118 -16 -24 -38 -67 -48 -95 -9 -28 -29 -62 -44 -75 -14 -14
-26 -33 -26 -44 0 -10 -4 -21 -8 -24 -5 -3 -15 -31 -22 -63 -8 -31 -22 -65
-32 -75 -10 -10 -20 -30 -24 -45 -4 -16 -21 -50 -39 -78 -30 -45 -84 -154
-122 -245 -9 -19 -19 -42 -24 -50 -5 -8 -23 -42 -40 -75 -17 -33 -42 -80 -55
-105 -13 -25 -23 -53 -24 -62 0 -10 -4 -18 -9 -18 -6 0 -20 -18 -32 -40 -13
-22 -26 -40 -31 -40 -4 0 -8 -12 -8 -26 0 -16 -11 -37 -29 -53 l-30 -28 412
-6 c516 -9 45374 -6 45776 2 195 4 296 10 298 17 2 6 -8 24 -22 40 -14 16 -28
43 -31 61 -3 17 -12 34 -20 37 -8 3 -14 11 -14 18 0 13 -33 88 -56 128 -8 14
-32 60 -54 102 -22 43 -56 92 -76 110 -43 40 -64 77 -64 116 0 16 -10 44 -23
63 -12 19 -40 68 -61 109 -22 41 -56 104 -77 139 -22 34 -39 71 -39 81 0 10
-9 21 -19 25 -11 3 -29 26 -41 50 -12 25 -25 47 -30 50 -4 3 -29 46 -55 97
-26 51 -56 104 -66 117 -11 13 -19 30 -19 38 0 7 -7 16 -15 19 -8 4 -15 14
-15 24 0 10 -20 42 -44 72 -24 29 -57 81 -74 115 -17 33 -44 80 -60 104 -16
24 -38 60 -48 79 -24 44 -96 153 -106 160 -15 11 -94 138 -139 225 -31 60 -52
90 -63 89 -9 -1 -16 4 -16 11 0 7 -16 45 -35 84 -19 39 -35 77 -35 86 0 8 -4
15 -10 15 -5 0 -10 9 -10 20 0 11 -6 20 -14 20 -8 0 -19 15 -26 34 -6 18 -26
51 -45 74 -19 22 -35 47 -35 55 0 8 -14 37 -31 63 -48 76 -148 262 -155 290
-4 13 -26 45 -50 70 -24 24 -44 49 -44 54 0 18 -151 189 -203 229 -28 22 -56
46 -62 51 -64 69 -118 112 -155 126 -64 23 -205 92 -246 120 -19 13 -38 24
-42 24 -4 0 -48 40 -98 88 -93 89 -176 157 -229 186 -16 9 -48 30 -70 47 -22
16 -62 45 -90 64 -27 19 -70 54 -94 77 -24 23 -63 54 -85 69 -23 14 -75 57
-116 95 -41 39 -91 81 -110 94 -19 13 -69 54 -112 90 -146 124 -171 145 -247
202 -42 32 -81 58 -88 58 -6 0 -78 64 -160 143 -81 78 -164 154 -183 167 -19
13 -176 164 -347 335 -355 352 -338 336 -375 352 -16 7 -38 28 -49 48 -12 20
-34 42 -50 51 -16 8 -29 22 -29 32 0 10 -17 25 -43 36 -23 11 -69 43 -102 71
-33 29 -85 68 -115 88 -31 19 -62 42 -69 51 -7 9 -19 16 -26 16 -6 0 -20 9
-30 20 -10 11 -25 20 -34 20 -29 0 -121 49 -169 89 -63 53 -136 88 -204 99
-46 7 -66 17 -112 57 -32 27 -61 55 -66 64 -5 9 -48 36 -96 61 -49 25 -97 53
-108 62 -10 10 -43 27 -73 40 -29 12 -53 28 -53 35 0 7 -9 13 -19 13 -11 0
-42 18 -70 40 -28 22 -74 51 -103 65 -29 14 -69 34 -88 45 -19 10 -45 19 -56
20 -12 0 -24 7 -28 15 -3 8 -13 15 -23 15 -10 0 -31 9 -48 20 -16 11 -41 20
-54 20 -14 0 -36 11 -50 24 -25 23 -380 188 -436 202 -15 4 -46 17 -68 30 -80
44 -162 83 -189 89 -16 4 -28 11 -28 16 0 5 -11 9 -25 9 -16 0 -25 6 -25 16 0
10 -6 14 -15 10 -20 -7 -45 3 -45 19 0 15 -97 58 -115 51 -7 -2 -15 1 -18 7
-2 7 -31 18 -62 25 -32 8 -65 20 -72 28 -8 8 -25 14 -37 14 -13 0 -29 7 -36
15 -7 8 -31 20 -53 27 -23 7 -49 19 -58 28 -9 8 -36 26 -60 40 -24 14 -61 41
-84 61 -54 48 -249 179 -266 179 -8 0 -25 9 -39 20 -14 11 -33 20 -43 20 -29
0 -269 130 -275 148 -2 7 -10 12 -18 12 -8 0 -33 17 -57 38 -71 64 -120 98
-124 85 -4 -12 -73 13 -96 36 -6 6 -19 11 -29 11 -10 0 -21 7 -24 15 -4 10
-20 15 -44 15 -33 0 -52 12 -171 115 -99 84 -156 125 -218 155 -46 22 -115 62
-154 88 -94 63 -88 59 -124 74 -18 7 -33 16 -33 20 0 5 -9 8 -20 8 -11 0 -23
7 -26 15 -4 8 -12 15 -19 15 -8 0 -16 9 -20 19 -3 11 -15 23 -26 26 -10 4 -19
13 -19 21 0 8 -7 14 -15 14 -8 0 -15 5 -15 10 0 6 -8 14 -17 17 -10 4 -28 20
-42 36 -18 22 -26 25 -32 15 -6 -9 -9 -7 -9 9 0 16 -11 26 -45 39 -28 10 -45
23 -45 33 0 9 -10 21 -22 26 -13 6 -32 24 -43 42 -15 24 -25 30 -42 26 -17 -4
-27 2 -41 26 -10 17 -21 28 -24 25 -3 -3 -15 6 -25 20 -65 82 -298 236 -359
236 -8 0 -11 6 -8 15 4 10 0 15 -14 15 -11 0 -25 6 -31 14 -7 8 -26 18 -42 21
-16 4 -29 10 -29 15 0 4 -16 18 -36 29 -20 12 -62 44 -93 70 -31 27 -71 56
-90 66 -19 10 -58 39 -85 65 -28 26 -65 55 -83 64 -17 8 -40 26 -50 38 -10 13
-31 30 -48 38 -16 8 -41 22 -54 32 -13 10 -27 15 -32 12 -5 -3 -9 0 -9 5 0 6
-7 11 -15 11 -7 0 -18 6 -22 13 -4 7 -21 18 -38 25 -38 18 -199 122 -203 133
-2 4 -39 29 -83 55 -43 26 -79 51 -79 55 0 5 -9 9 -20 9 -11 0 -20 5 -20 10 0
6 -7 10 -15 10 -8 0 -15 5 -15 10 0 6 -6 10 -14 10 -7 0 -30 14 -51 30 -21 17
-46 30 -56 30 -10 0 -23 9 -29 20 -6 11 -30 32 -53 47 -23 14 -57 39 -75 54
-18 16 -42 29 -52 29 -11 0 -20 6 -20 13 -1 17 -80 73 -138 98 -82 35 -117 52
-132 64 -8 6 -33 17 -55 24 -22 7 -47 19 -55 26 -8 6 -46 22 -85 34 -38 12
-84 33 -102 47 -17 13 -43 24 -57 24 -28 0 -58 14 -93 44 -12 10 -26 15 -32
11 -6 -3 -26 2 -44 13 -36 22 -94 41 -147 48 -19 3 -40 11 -46 19 -6 8 -27 15
-47 15 -27 0 -40 7 -56 28 -18 23 -20 24 -21 8 0 -17 -4 -16 -33 12 -18 18
-41 32 -50 32 -9 0 -17 7 -17 15 0 8 -8 15 -18 15 -11 0 -27 8 -36 19 -9 10
-30 21 -47 25 -19 4 -33 14 -39 31 -5 14 -14 25 -19 25 -5 0 -32 21 -60 46
-29 26 -54 44 -58 41 -3 -3 -31 20 -62 51 -31 32 -83 73 -116 92 -33 19 -78
47 -99 62 -21 15 -45 28 -51 28 -7 0 -15 9 -18 21 -3 11 -14 23 -24 25 -10 3
-28 21 -41 40 -12 18 -29 34 -37 34 -8 0 -15 8 -15 18 0 9 -5 24 -10 32 -9 13
-11 13 -20 0 -8 -12 -10 -9 -10 12 0 22 -7 31 -32 42 -18 7 -44 26 -58 41 -14
15 -37 33 -52 41 -16 8 -28 21 -28 28 0 8 -12 17 -27 21 -16 3 -44 19 -63 34
-19 15 -56 38 -82 50 -27 13 -48 27 -48 32 0 5 -7 9 -16 9 -8 0 -22 7 -30 15
-9 8 -27 15 -42 15 -15 0 -50 11 -78 24 -29 14 -62 22 -76 19 -15 -3 -31 2
-41 11 -8 9 -25 16 -37 16 -30 0 -80 23 -118 55 -18 15 -35 25 -38 22 -11 -11
-153 91 -154 111 0 6 -6 12 -14 12 -7 0 -16 9 -19 20 -3 11 -13 23 -24 27 -10
5 -18 13 -19 18 -3 27 -18 54 -32 59 -37 14 -57 32 -54 48 2 11 -5 18 -19 20
-16 2 -25 13 -31 34 -5 19 -23 43 -45 60 -100 74 -168 139 -166 156 2 10 -1
18 -6 18 -20 0 -109 84 -121 115 -8 19 -22 37 -31 40 -10 3 -17 14 -16 24 1
20 -53 91 -69 91 -7 0 -14 7 -18 15 -3 8 -10 15 -16 15 -5 0 -29 14 -52 30
-22 17 -49 30 -60 30 -10 0 -18 5 -18 11 0 5 -8 9 -17 8 -30 -4 -72 12 -77 29
-3 10 -8 40 -12 67 -4 28 -14 66 -24 85 -9 19 -20 59 -24 89 -4 29 -13 63 -20
75 -26 41 -56 204 -56 306 0 54 -9 151 -21 217 -11 65 -24 143 -30 173 -5 30
-16 170 -24 310 -9 140 -20 291 -26 335 -21 169 -29 253 -29 322 0 39 -7 105
-15 145 -22 104 -43 315 -50 508 -3 91 -8 199 -11 241 l-5 76 41 49 c58 69 67
90 84 193 12 76 22 105 60 169 36 62 46 90 51 142 10 104 25 170 57 249 16 41
38 113 49 160 12 46 38 120 60 162 21 43 41 97 45 121 3 24 12 68 20 99 7 30
18 116 23 190 8 117 13 142 40 201 36 79 90 254 121 393 12 55 28 123 36 150
8 28 20 142 29 255 8 113 19 222 25 242 23 79 69 128 204 219 192 128 384 326
455 468 16 31 61 148 101 261 77 217 128 332 209 468 27 46 62 113 77 150 15
37 51 122 81 190 57 132 101 270 158 502 53 215 121 409 193 550 35 68 92 190
127 270 35 80 77 176 95 215 17 38 50 117 72 175 23 58 68 164 101 235 148
324 219 544 302 935 25 118 75 334 110 480 82 338 98 429 98 570 1 137 -16
209 -75 330 -43 88 -121 176 -262 294 -96 81 -104 127 -40 241 18 33 40 94 50
135 9 41 38 122 64 180 88 195 94 222 125 598 14 163 37 369 51 456 18 111 24
181 21 230 -3 39 -10 143 -17 231 -8 101 -10 255 -7 420 5 223 9 271 27 335
27 97 36 304 21 499 -9 127 -8 160 9 280 16 111 19 187 18 411 l-1 275 -35
100 c-18 54 -42 115 -52 135 -32 63 -41 117 -50 313 -11 226 -17 256 -77 450
l-47 148 22 68 c26 79 27 116 7 191 -8 30 -15 69 -15 87 0 18 -11 68 -25 112
-19 58 -28 117 -34 218 -10 148 -15 165 -178 606 -36 97 -36 99 -24 167 10 56
10 83 -3 157 -31 181 -79 278 -159 319 -44 24 -107 84 -127 123 -9 20 -21 70
-25 111 -4 41 -11 85 -16 98 -5 12 -46 62 -91 110 -48 50 -91 106 -102 132
-10 25 -42 97 -71 160 -29 63 -60 136 -70 162 -25 69 -75 120 -164 172 -104
60 -136 93 -156 163 -15 50 -30 70 -130 173 -92 96 -117 127 -132 171 -14 41
-39 75 -110 151 -87 92 -113 135 -113 188 0 46 -26 95 -85 160 -36 40 -65 78
-65 85 0 33 -54 75 -141 111 -107 44 -140 72 -163 139 -53 150 -89 197 -379
480 -184 182 -243 245 -276 302 -54 91 -101 134 -226 208 -55 32 -173 107
-262 167 -137 92 -178 126 -260 214 -54 58 -118 117 -143 132 -41 25 -56 27
-185 32 l-140 5 -60 39 c-33 22 -106 61 -162 88 -56 27 -118 62 -137 78 -49
44 -100 62 -191 67 -44 3 -90 11 -102 19 -11 7 -29 35 -39 61 -9 26 -27 58
-38 70 -34 36 -187 123 -236 135 -25 5 -56 13 -69 16 -14 4 -43 30 -65 58 -53
65 -92 92 -158 108 -29 8 -78 25 -108 39 -83 37 -210 75 -292 86 -40 6 -98 17
-128 26 -38 10 -101 15 -212 15 l-158 0 -42 33 c-68 51 -177 104 -291 141 -57
19 -121 45 -143 58 -60 38 -71 39 -173 28 -80 -9 -110 -8 -181 6 -50 10 -145
18 -232 20 -140 2 -150 4 -210 32 l-63 31 -170 -7 c-93 -4 -189 -5 -213 -1
-30 4 -71 26 -142 75 -211 146 -218 148 -333 118 l-62 -17 -130 43 c-71 23
-157 44 -190 47 -54 4 -68 1 -135 -32z m328 -43 l122 -40 73 19 c39 10 80 19
90 19 21 0 145 -79 249 -157 l66 -51 234 -3 c227 -4 234 -5 272 -29 37 -22 53
-25 220 -31 100 -4 199 -12 221 -19 27 -8 76 -10 160 -5 l121 7 70 -35 c38
-19 96 -43 129 -52 83 -23 187 -73 282 -133 l80 -52 154 6 c126 5 162 3 197
-10 24 -9 84 -23 134 -31 108 -19 225 -55 311 -95 34 -17 72 -30 85 -30 45 0
102 -39 137 -94 36 -57 55 -68 145 -86 37 -7 87 -31 155 -73 99 -62 100 -64
118 -120 12 -36 27 -62 40 -69 12 -7 73 -20 134 -29 107 -16 115 -19 158 -57
26 -23 77 -53 115 -68 38 -14 99 -46 137 -71 84 -54 104 -59 271 -72 95 -7
141 -15 160 -27 15 -9 79 -70 142 -134 127 -130 229 -206 475 -355 184 -112
211 -134 273 -230 68 -105 103 -145 251 -282 229 -212 268 -253 321 -333 28
-42 60 -103 71 -135 41 -117 58 -134 192 -185 59 -22 78 -35 104 -71 18 -24
49 -66 70 -92 89 -114 94 -122 103 -185 11 -79 35 -117 120 -193 59 -52 73
-71 95 -130 23 -60 40 -82 135 -178 92 -93 112 -119 130 -170 28 -76 72 -127
146 -170 147 -85 135 -70 223 -282 86 -207 117 -262 186 -330 80 -78 115 -143
115 -213 0 -111 37 -166 177 -264 70 -49 79 -67 118 -221 27 -105 31 -178 14
-246 -10 -41 -8 -52 30 -154 22 -61 41 -113 41 -116 0 -3 30 -86 66 -183 l67
-177 7 -140 c5 -102 13 -155 28 -197 11 -31 23 -83 27 -115 4 -32 13 -83 22
-113 15 -53 14 -57 -12 -140 l-27 -85 46 -145 c70 -224 77 -264 86 -485 l7
-200 47 -110 c26 -60 53 -137 61 -170 22 -101 29 -458 11 -618 -11 -98 -16
-236 -16 -466 0 -309 -1 -332 -22 -407 -22 -76 -23 -95 -23 -474 0 -283 4
-418 13 -475 13 -75 12 -93 -12 -250 -31 -206 -41 -298 -61 -565 -19 -248 -30
-299 -100 -462 -30 -69 -66 -168 -80 -219 -15 -51 -42 -122 -61 -157 -42 -81
-44 -126 -7 -194 19 -34 47 -64 89 -94 155 -111 260 -262 289 -417 32 -169 17
-294 -84 -721 -38 -160 -91 -390 -116 -511 -72 -337 -141 -549 -288 -882 -46
-103 -94 -214 -105 -245 -28 -76 -195 -453 -288 -650 -85 -180 -155 -378 -208
-588 -52 -203 -112 -392 -153 -480 -19 -41 -47 -109 -64 -150 -16 -42 -54
-118 -85 -170 -84 -141 -135 -253 -209 -465 -85 -241 -121 -317 -194 -407
-124 -154 -252 -270 -390 -353 -81 -48 -133 -100 -164 -162 -33 -65 -36 -81
-47 -290 -8 -151 -16 -207 -46 -335 -48 -206 -99 -378 -136 -463 -31 -69 -34
-90 -57 -315 -15 -140 -36 -221 -81 -306 -22 -42 -40 -83 -40 -93 0 -30 -35
-152 -73 -251 -24 -63 -39 -126 -46 -188 -5 -51 -16 -105 -24 -120 -8 -15 -28
-53 -45 -84 -17 -32 -34 -79 -37 -105 -17 -128 -25 -150 -76 -208 l-50 -58 6
-191 c8 -243 30 -506 55 -666 11 -69 20 -163 20 -210 0 -47 7 -126 15 -175 8
-50 21 -209 30 -355 10 -167 26 -335 44 -455 16 -104 32 -244 36 -310 4 -73
16 -161 32 -225 14 -58 29 -132 34 -166 5 -33 17 -80 28 -105 12 -24 21 -59
21 -77 0 -18 5 -42 10 -52 7 -14 7 -34 -1 -67 -9 -34 -9 -48 -1 -51 8 -2 8
-11 1 -29 -6 -17 -5 -38 2 -64 9 -30 9 -48 0 -78 -8 -28 -8 -47 0 -67 7 -21 7
-40 -1 -71 -11 -36 -10 -77 3 -158 9 -60 70 -153 111 -171 27 -11 28 -13 9
-14 -13 0 -23 -3 -23 -7 0 -14 34 -43 52 -43 13 0 18 -7 18 -30 0 -21 4 -28
14 -24 9 3 16 -4 20 -21 4 -14 11 -23 16 -20 6 3 10 -5 10 -19 0 -16 6 -26 15
-26 8 0 15 -4 15 -10 0 -5 5 -10 11 -10 19 0 68 -60 62 -76 -3 -7 0 -14 6 -14
6 0 11 -8 11 -18 0 -26 21 -44 35 -32 9 8 11 4 7 -15 -3 -20 0 -25 17 -25 11
0 21 -6 21 -14 0 -7 10 -21 23 -29 18 -13 19 -16 5 -16 -10 -1 -18 -8 -18 -16
0 -18 36 -38 52 -29 6 4 8 3 5 -4 -4 -5 -1 -23 7 -39 28 -56 46 -104 46 -122
0 -10 8 -22 17 -25 14 -6 15 -9 4 -16 -19 -11 -5 -44 15 -36 13 5 15 1 10 -18
-4 -16 0 -30 11 -41 13 -14 15 -22 6 -46 -8 -21 -8 -31 2 -39 20 -16 26 -50 9
-50 -18 0 -18 -19 -1 -26 9 -3 12 -21 11 -55 -2 -28 2 -59 9 -69 8 -14 7 -27
-5 -57 -20 -45 -33 -185 -20 -210 13 -26 -6 -103 -25 -103 -10 0 -13 -6 -10
-18 3 -9 9 -26 12 -37 4 -13 -1 -29 -15 -45 -12 -13 -19 -32 -17 -42 3 -10 1
-18 -5 -18 -5 0 -7 -9 -3 -19 3 -11 1 -22 -5 -26 -6 -4 -8 -15 -5 -26 4 -10 2
-19 -3 -19 -6 0 -13 -27 -17 -60 -4 -33 -12 -60 -17 -60 -6 0 -8 -7 -4 -15 3
-8 -3 -30 -13 -48 -9 -17 -23 -61 -30 -97 -22 -119 -52 -200 -72 -200 -11 0
-19 -7 -19 -16 0 -10 6 -14 15 -10 16 6 21 -9 5 -19 -5 -3 -19 -38 -32 -77
-15 -45 -29 -73 -40 -76 -11 -3 -16 -14 -16 -33 1 -17 -4 -35 -10 -41 -7 -7
-12 -25 -12 -40 0 -15 -4 -28 -9 -28 -5 0 -17 -26 -26 -57 -22 -75 -35 -102
-62 -129 -13 -13 -23 -32 -23 -44 0 -11 -4 -20 -9 -20 -10 0 -14 -10 -25 -63
-6 -23 -10 -27 -28 -21 -19 6 -21 3 -15 -30 4 -27 2 -36 -8 -36 -7 0 -17 -10
-20 -22 -12 -41 -74 -164 -89 -177 -8 -7 -12 -19 -9 -27 3 -10 0 -12 -10 -9
-11 5 -16 -3 -21 -29 -4 -19 -14 -43 -23 -52 -12 -12 -13 -18 -4 -24 10 -5 9
-9 -3 -13 -9 -4 -16 -14 -16 -22 0 -9 -11 -35 -23 -58 -13 -23 -27 -58 -31
-78 -3 -20 -15 -44 -26 -54 -11 -10 -20 -28 -20 -40 0 -12 -11 -39 -25 -59
-14 -20 -24 -40 -24 -44 5 -30 -3 -51 -16 -46 -17 7 -22 -31 -5 -41 5 -3 -2
-21 -15 -41 -14 -20 -27 -51 -31 -69 -3 -19 -12 -36 -20 -39 -8 -3 -14 -11
-14 -19 0 -7 -16 -43 -35 -80 -19 -37 -35 -73 -35 -81 0 -8 -6 -16 -12 -19 -7
-2 -35 -48 -62 -101 -28 -56 -55 -96 -63 -96 -11 0 -14 -7 -11 -24 4 -18 1
-23 -10 -19 -11 5 -13 1 -7 -17 5 -15 4 -20 -4 -16 -6 4 -13 -4 -17 -18 -3
-13 -14 -32 -25 -42 -10 -9 -19 -25 -19 -34 0 -10 -7 -23 -15 -30 -8 -7 -15
-18 -15 -24 0 -7 -13 -22 -29 -34 -16 -12 -43 -50 -59 -84 -16 -35 -46 -80
-66 -101 -20 -21 -36 -45 -36 -53 0 -8 -4 -14 -10 -14 -14 0 -60 -83 -60 -108
0 -12 -6 -22 -12 -22 -17 -1 -58 -35 -58 -49 0 -19 -44 -81 -57 -81 -7 0 -13
-4 -13 -10 0 -6 -8 -19 -17 -29 -10 -10 -29 -36 -43 -56 -14 -20 -33 -46 -42
-56 -10 -10 -18 -25 -18 -33 0 -8 -16 -23 -35 -34 -19 -12 -41 -36 -48 -54 -8
-19 -25 -41 -38 -50 -28 -18 -89 -74 -89 -81 0 -5 -39 -51 -79 -91 -69 -70
-105 -101 -117 -98 -8 2 -14 -4 -14 -13 0 -9 -7 -18 -15 -22 -24 -9 -95 -84
-89 -94 2 -5 -7 -11 -21 -15 -14 -3 -25 -12 -25 -19 0 -7 -18 -22 -40 -32 -22
-10 -40 -24 -40 -32 0 -8 -6 -11 -16 -7 -11 4 -18 -1 -21 -14 -3 -11 -12 -20
-19 -20 -8 0 -17 -7 -21 -15 -3 -9 -22 -24 -42 -34 -20 -11 -45 -28 -55 -40
-11 -12 -25 -21 -32 -21 -7 0 -23 -13 -36 -30 -12 -16 -27 -30 -32 -30 -6 0
-27 -17 -46 -38 -20 -20 -60 -50 -90 -65 -77 -39 -94 -50 -103 -65 -4 -6 -15
-12 -23 -12 -8 0 -28 -14 -44 -31 -23 -26 -36 -31 -69 -31 -23 0 -41 -3 -41
-9 0 -17 -41 -50 -70 -56 -17 -3 -30 -12 -30 -19 0 -8 -7 -14 -15 -14 -8 0
-15 -8 -15 -17 0 -13 -3 -14 -12 -5 -17 17 -38 15 -38 -3 0 -8 -6 -15 -14 -15
-7 0 -19 -6 -25 -14 -7 -8 -20 -12 -30 -9 -12 3 -20 -2 -24 -16 -3 -11 -16
-22 -31 -26 -14 -3 -37 -7 -51 -10 -14 -3 -34 -14 -45 -25 -11 -11 -26 -20
-34 -20 -7 0 -25 -9 -39 -20 -14 -11 -44 -27 -67 -35 -23 -8 -53 -24 -67 -35
-14 -11 -32 -20 -39 -20 -8 0 -14 -6 -14 -13 0 -9 -12 -11 -40 -9 -35 4 -40 2
-40 -17 0 -14 -6 -21 -20 -21 -12 0 -34 -10 -50 -21 -15 -12 -40 -21 -54 -21
-14 0 -31 -7 -37 -14 -6 -8 -22 -14 -35 -14 -13 0 -35 -10 -49 -22 -14 -12
-34 -23 -45 -25 -10 -1 -34 -12 -52 -23 -18 -11 -41 -20 -50 -20 -10 0 -18 -4
-18 -10 0 -5 -17 -10 -38 -10 -21 0 -47 -6 -58 -14 -10 -8 -29 -12 -41 -9 -16
4 -23 1 -23 -10 0 -10 -7 -13 -19 -10 -11 3 -28 -4 -40 -16 -12 -12 -32 -21
-46 -21 -13 0 -28 -8 -33 -17 -9 -16 -12 -16 -35 0 -23 15 -25 15 -30 -2 -3
-13 -27 -25 -78 -41 -41 -12 -78 -26 -84 -31 -5 -5 -19 -9 -32 -9 -13 0 -32
-4 -43 -10 -11 -5 -29 -14 -40 -20 -11 -5 -29 -10 -41 -10 -11 0 -30 -5 -42
-12 -12 -6 -51 -14 -87 -17 -41 -4 -65 -11 -66 -18 -1 -7 -2 -16 -3 -19 0 -4
-13 2 -28 11 -18 12 -28 14 -31 7 -2 -7 -13 -12 -23 -12 -11 0 -17 -4 -14 -10
3 -6 -1 -7 -10 -4 -9 4 -25 -2 -38 -13 -24 -22 -63 -34 -117 -37 -19 -1 -45
-7 -57 -14 -28 -15 -68 -15 -93 1 -14 8 -23 9 -28 2 -17 -24 -124 -52 -173
-46 -9 1 -19 -7 -21 -17 -5 -16 -13 -18 -68 -14 -52 4 -66 1 -76 -12 -11 -15
-17 -16 -53 -5 -32 10 -43 9 -56 -1 -12 -10 -18 -10 -30 0 -12 10 -15 10 -15
-1 0 -11 -2 -11 -9 0 -8 13 -12 13 -28 0 -10 -8 -22 -20 -26 -26 -4 -7 -23
-13 -42 -13 -18 0 -36 -6 -38 -12 -3 -7 -6 -5 -6 6 -1 18 -2 18 -20 2 -15 -13
-20 -14 -24 -4 -3 10 -7 10 -17 1 -7 -7 -25 -9 -41 -6 -22 4 -29 2 -29 -10 0
-11 -6 -14 -15 -11 -10 4 -13 13 -9 26 5 17 3 18 -14 9 -11 -6 -22 -7 -26 -4
-3 3 -6 0 -6 -8 0 -22 -86 -40 -108 -23 -24 19 -46 17 -67 -6 -10 -11 -21 -17
-24 -12 -5 8 -229 -10 -273 -22 -10 -2 -18 0 -18 5 0 5 -7 9 -15 9 -8 0 -15 5
-15 10 0 21 -30 9 -31 -12 -1 -17 -2 -19 -6 -5 -5 21 -41 22 -69 3 -18 -13
-24 -13 -48 0 -28 14 -28 14 -21 -13 6 -24 5 -25 -10 -13 -10 8 -19 10 -23 4
-4 -5 -27 -11 -51 -12 -42 -4 -44 -3 -30 14 13 16 12 17 -16 10 -16 -4 -43 -8
-60 -10 -16 -1 -38 -3 -47 -4 -10 -1 -18 -8 -18 -16 0 -12 -12 -14 -60 -10
-43 3 -60 0 -60 -9 0 -6 -11 -13 -25 -13 -20 -2 -25 3 -25 23 0 19 -3 23 -12
15 -15 -11 -94 -27 -120 -23 -10 1 -26 -3 -38 -9 -15 -8 -20 -8 -20 2 0 7 -12
22 -27 32 l-26 19 5 -41 6 -42 -45 31 c-29 21 -53 29 -68 26 -14 -2 -26 1 -29
7 -3 7 -11 4 -20 -8 -15 -19 -16 -19 -36 -1 -28 25 -35 13 -14 -22 18 -28 18
-28 -2 -10 -24 20 -40 22 -47 5 -3 -8 -6 -6 -6 5 -1 19 -16 23 -26 7 -5 -8
-11 -7 -20 0 -8 7 -27 9 -44 5 -27 -6 -29 -4 -24 15 5 18 2 21 -13 18 -12 -2
-20 -14 -23 -33 -4 -29 -4 -29 -10 -6 -8 30 -31 40 -31 13 0 -21 -26 -37 -35
-23 -3 5 2 11 10 15 8 3 15 10 15 17 0 6 -7 9 -15 5 -8 -3 -19 2 -24 12 -9 16
-11 15 -25 -3 -13 -17 -18 -18 -35 -8 -39 24 -101 7 -101 -27 0 -5 -16 0 -35
12 -25 14 -45 19 -66 14 -19 -3 -28 -2 -24 4 4 6 -21 10 -64 10 -56 0 -71 3
-71 15 0 17 -16 20 -25 5 -10 -16 -25 -12 -25 6 0 13 -7 15 -30 11 -19 -4 -34
-1 -44 8 -20 21 -36 19 -36 -4 0 -17 -4 -18 -37 -11 -20 5 -40 7 -45 4 -4 -3
-5 3 -1 12 5 14 1 16 -28 10 -27 -5 -38 -2 -52 14 -23 27 -40 26 -31 -2 l6
-23 -26 24 c-14 14 -26 29 -26 33 0 18 -29 38 -44 32 -9 -3 -16 -14 -16 -24 0
-13 -6 -16 -25 -12 -28 5 -31 12 -13 30 16 16 3 26 -19 17 -10 -5 -22 -7 -27
-6 -5 1 -12 -3 -16 -8 -4 -7 -26 -7 -70 0 -36 6 -72 8 -82 6 -10 -3 -21 -1
-24 5 -3 5 -12 7 -20 4 -9 -3 -14 2 -14 14 0 13 -7 20 -20 20 -11 0 -20 -4
-20 -10 0 -5 -8 -6 -17 -3 -26 10 -53 36 -53 50 0 19 -17 16 -33 -7 -14 -20
-14 -20 -31 5 -19 29 -53 36 -37 7 8 -16 6 -17 -25 -14 -18 2 -32 8 -29 12 3
5 1 11 -5 15 -6 4 -8 11 -5 16 4 5 2 9 -4 9 -5 0 -12 -4 -16 -10 -3 -5 -12 -7
-19 -4 -8 3 -20 -1 -27 -9 -14 -14 -49 -12 -49 4 0 5 -20 9 -45 9 -34 0 -47 5
-55 20 -11 20 -36 27 -42 11 -1 -5 -19 -11 -38 -15 -19 -3 -29 -3 -22 0 22 10
14 36 -10 33 -13 -1 -31 1 -41 6 -10 4 -23 2 -31 -5 -12 -9 -18 -6 -31 14 -9
14 -14 30 -10 36 3 6 -3 10 -16 10 -16 0 -20 -5 -16 -19 4 -17 2 -18 -20 -10
-13 5 -35 9 -49 9 -18 0 -24 5 -22 17 2 14 -5 17 -36 18 -22 0 -41 5 -43 13
-7 18 -21 15 -26 -5 -3 -11 -5 -7 -6 10 -1 29 -18 37 -27 12 -5 -12 -10 -13
-20 -4 -8 6 -23 9 -34 6 -11 -3 -20 -1 -20 4 0 5 -25 7 -55 6 -50 -3 -55 -2
-49 15 4 13 0 18 -15 18 -12 0 -31 6 -42 13 -18 10 -23 9 -26 -1 -4 -10 -9
-10 -23 3 -10 9 -42 23 -71 30 -30 8 -55 19 -57 25 -2 5 -13 10 -25 10 -32 0
-93 23 -115 43 -26 24 -45 22 -37 -4 6 -17 -1 -15 -44 15 -28 20 -62 36 -75
36 -14 0 -27 4 -30 9 -3 5 -26 14 -51 20 -25 6 -45 17 -45 23 0 9 -3 9 -12 0
-16 -16 -28 -15 -28 1 0 8 -22 19 -54 26 -38 8 -55 17 -59 31 -3 13 -11 17
-26 13 -13 -3 -29 1 -41 12 -10 9 -24 14 -30 10 -9 -5 -10 -1 -5 15 8 24 8 24
-41 3 -6 -2 -18 2 -25 9 -13 13 -34 24 -52 27 -19 2 -67 33 -67 43 0 6 -11 8
-28 5 -23 -5 -34 0 -53 23 -13 16 -29 29 -35 30 -7 0 -14 7 -18 15 -3 8 -15
15 -26 15 -11 0 -20 4 -20 8 0 14 -80 62 -103 62 -21 0 -88 21 -97 30 -5 5
-60 43 -119 82 -14 10 -36 18 -49 18 -12 0 -25 6 -28 14 -4 12 -64 49 -145 91
-10 5 -19 18 -19 28 0 14 -5 17 -20 12 -22 -7 -90 41 -90 63 0 6 -9 12 -20 12
-11 0 -20 3 -20 8 0 11 -88 64 -98 58 -9 -6 -35 21 -45 47 -3 9 -14 17 -22 17
-9 0 -28 14 -42 30 -25 31 -53 40 -53 18 -1 -7 -8 0 -16 15 -9 16 -21 26 -28
24 -8 -3 -18 5 -25 19 -6 15 -18 24 -28 22 -11 -2 -19 5 -21 17 -6 33 -22 42
-34 21 -10 -18 -12 -17 -22 14 -7 22 -22 39 -43 49 -18 9 -33 22 -33 29 0 6
-4 12 -10 12 -17 0 -64 55 -62 73 4 20 -9 22 -26 5 -9 -9 -12 -8 -12 5 0 10
-8 17 -20 17 -11 0 -20 5 -20 10 0 18 -38 53 -49 45 -7 -4 -11 4 -11 21 0 22
-3 25 -22 21 -16 -5 -29 3 -52 28 -49 55 -56 64 -56 75 0 5 -7 10 -15 10 -8 0
-12 6 -9 14 3 7 -3 16 -13 20 -33 13 -83 51 -83 64 0 6 -4 12 -10 12 -5 0 -7
7 -4 15 4 10 0 15 -15 15 -17 0 -21 6 -21 36 0 27 -4 35 -14 31 -19 -7 -36 12
-36 41 0 17 -4 22 -14 19 -8 -3 -17 1 -20 9 -3 8 1 14 11 14 30 0 -6 27 -52
39 -25 6 -45 16 -45 21 0 5 7 7 15 4 8 -4 15 -2 14 2 -1 13 -157 148 -174 152
-8 2 -15 10 -15 17 0 8 -9 17 -21 20 -12 4 -29 26 -39 51 -11 24 -24 44 -29
44 -6 0 -13 15 -17 34 -6 33 -35 58 -42 37 -5 -15 -22 -3 -22 15 0 8 -11 27
-25 42 -14 15 -25 31 -25 37 0 6 -9 16 -20 23 -13 8 -20 23 -20 43 0 16 -4 28
-9 25 -5 -3 -14 0 -20 8 -9 11 -9 15 1 18 8 3 2 11 -15 22 -15 10 -27 27 -27
37 0 10 -7 22 -16 27 -11 6 -13 11 -5 16 16 10 14 29 -3 23 -10 -4 -12 0 -9
14 4 13 0 19 -11 19 -9 0 -16 5 -16 11 0 7 -8 18 -17 25 -17 12 -16 13 4 14
28 0 21 23 -10 38 -12 6 -16 11 -9 11 20 1 14 31 -7 31 -24 0 -36 16 -19 23 9
4 6 11 -9 24 -16 13 -21 25 -17 40 4 16 1 25 -10 29 -9 3 -16 12 -16 20 0 8
-4 14 -10 14 -5 0 -10 11 -10 24 0 13 -16 50 -35 82 -20 32 -31 60 -25 62 6 2
1 15 -10 29 -24 31 -25 46 -5 63 19 16 20 34 1 27 -8 -3 -22 3 -32 14 -15 17
-16 23 -5 41 12 19 11 20 -8 15 -17 -4 -19 -2 -11 13 15 27 12 37 -10 43 -12
3 -18 11 -15 20 4 8 -5 39 -18 68 -13 30 -27 72 -31 93 -4 21 -13 47 -19 58
-9 15 -9 20 1 27 15 9 5 35 -31 78 -16 17 -17 25 -7 43 9 16 9 29 2 44 -6 11
-13 37 -16 56 -7 56 -45 153 -66 171 -19 17 -19 17 5 33 25 16 34 46 15 46 -5
0 -10 -6 -10 -12 0 -9 -2 -10 -8 -2 -4 7 -16 13 -26 15 -25 5 -33 29 -11 29
15 0 16 2 4 16 -7 9 -12 29 -11 45 3 21 -1 29 -12 29 -9 0 -16 -6 -17 -12 -1
-22 -27 56 -28 84 -1 15 -9 31 -18 37 -13 7 -16 20 -14 53 2 46 -17 77 -40 63
-8 -5 -9 -1 -5 13 5 15 2 22 -11 25 -14 4 -12 5 5 6 36 2 20 26 -16 26 -29 0
-30 1 -15 17 15 16 15 20 0 36 -9 9 -22 39 -29 66 -8 31 -19 51 -30 54 -22 5
-22 12 -3 38 19 25 19 34 -2 34 -15 0 -18 8 -15 55 3 46 1 55 -13 55 -11 0
-15 5 -11 15 3 8 -1 21 -9 29 -8 7 -11 16 -8 19 3 4 -2 22 -11 42 -15 32 -16
37 -2 57 20 28 20 36 0 40 -9 2 -22 17 -29 35 -12 27 -11 31 1 26 20 -7 18 26
-4 62 -14 23 -16 34 -8 47 8 13 7 27 -3 50 -14 36 -14 35 -5 91 5 31 4 36 -9
31 -8 -3 -18 -1 -21 4 -3 6 1 12 9 16 17 6 20 62 5 86 -5 9 -5 19 1 27 12 13
2 54 -15 65 -7 5 -5 8 5 8 12 0 16 11 17 47 0 27 -4 50 -9 54 -6 3 -3 23 6 49
9 26 13 57 9 77 -7 36 13 123 30 136 7 5 5 12 -6 20 -16 13 -16 15 3 30 12 11
19 29 19 52 0 19 7 55 16 81 9 26 14 57 11 70 -3 17 0 24 10 24 9 0 13 6 10
14 -3 8 1 17 10 20 12 5 14 16 10 46 -3 22 -1 40 4 40 5 0 9 12 9 26 0 14 4
23 10 19 6 -3 10 1 10 10 0 9 7 27 17 41 13 20 14 32 6 59 -9 27 -8 37 3 46 8
7 12 14 10 17 -3 2 -1 13 5 24 8 15 6 26 -6 45 -12 18 -14 28 -6 36 16 16 14
57 -3 63 -12 5 -12 10 -1 37 9 21 10 38 4 49 -6 11 -5 19 1 23 7 5 9 43 4 113
-4 74 -3 119 6 147 8 28 15 198 21 560 4 286 17 736 28 1000 12 264 37 899 56
1410 19 512 39 1011 45 1110 13 229 13 1178 0 1309 -8 77 -17 114 -41 165 -27
58 -32 82 -40 192 -5 70 -13 147 -18 170 -6 24 -11 60 -11 80 0 48 -34 173
-71 267 -27 66 -33 96 -40 210 -5 73 -18 181 -30 240 -19 90 -23 143 -24 332
-1 124 -7 277 -13 340 -7 63 -12 189 -12 280 0 164 -2 178 -38 220 -2 3 -97 5
-210 5 -180 0 -212 2 -247 19 -78 36 -203 127 -298 217 -172 162 -256 296
-357 564 -65 173 -107 262 -205 435 -115 201 -212 429 -294 684 -45 139 -48
156 -71 431 -25 296 -42 425 -76 560 -40 161 -111 409 -159 555 -123 379 -143
470 -175 791 -11 113 -35 280 -52 370 -30 149 -32 181 -32 349 0 198 10 277
64 505 60 255 134 408 256 532 44 46 89 83 98 83 10 0 55 18 101 40 46 22 95
40 109 40 55 0 129 23 159 49 44 40 49 113 12 201 -41 99 -44 112 -60 280 -8
85 -21 180 -30 210 -51 185 -59 229 -59 325 -1 94 2 109 46 235 39 114 48 155
58 265 8 82 24 173 44 245 l31 115 0 320 1 320 28 89 c47 151 56 223 66 540
11 325 19 389 68 496 52 114 197 649 212 785 30 262 53 342 166 576 l75 156
-3 144 -2 145 47 74 c26 41 56 103 67 139 30 95 60 252 60 310 0 29 12 87 29
138 16 49 41 126 56 172 14 46 44 119 65 161 21 42 46 106 55 141 20 76 71
202 114 279 22 40 31 68 31 105 1 124 39 196 163 306 45 40 109 104 141 143
32 39 83 97 113 129 29 32 65 82 79 110 14 27 47 73 73 101 26 28 64 76 84
106 20 31 57 71 82 90 47 35 95 102 95 133 0 36 25 67 69 87 106 50 132 65
198 119 38 31 87 64 108 73 22 9 64 27 93 39 28 12 66 37 82 56 28 32 30 38
30 119 0 140 27 175 185 238 94 38 112 48 241 133 109 72 142 96 195 143 33
29 78 53 164 85 204 78 310 145 483 309 79 75 137 118 217 165 70 40 138 90
185 135 151 144 208 193 327 278 67 48 155 119 197 158 41 38 85 72 98 74 13
3 70 7 128 9 89 3 113 8 155 30 35 18 73 28 128 33 73 6 82 10 131 49 28 23
78 56 111 73 33 16 87 47 120 67 58 35 62 36 120 29 150 -19 153 -17 470 205
58 40 66 42 165 52 58 6 150 21 205 34 57 13 148 25 212 28 73 4 122 11 142
21 33 18 62 65 80 133 14 51 55 103 82 103 11 0 63 -22 117 -50 93 -47 102
-50 217 -60 75 -6 149 -19 198 -35 63 -20 98 -25 186 -25 200 0 261 22 368
133 69 72 107 93 144 78 13 -5 55 -32 93 -60 111 -82 157 -81 287 8 80 54 97
61 222 92 l135 33 64 -20 c37 -11 92 -19 133 -19 101 1 295 45 385 88 68 33
81 36 145 33 47 -2 109 -16 193 -44z"/>
</g>
</svg>
